<svg width="329" height="36" viewBox="0 0 329 36" fill="none" xmlns="http://www.w3.org/2000/svg">
<g clip-path="url(#clip0_3156_2)">
<path d="M5.11723 7H0L1.50334 10.6034H6.53384L5.11723 7ZM22.579 7L20.006 10.6034H25.0942L27.7829 7H22.579ZM18.6761 12.4937L11.1884 22.2405L7.31442 12.4937H2.31283L8.81766 27.9705H12.258L23.7065 12.4937H18.6761Z" fill="#AF3B2B"/>
<path d="M33.5044 7L32.8684 10.6034H37.8699L38.5059 7H33.5044ZM32.5504 12.4937L29.8906 27.9705H34.8921L37.5519 12.4937H32.5504Z" fill="#6C6C6C"/>
<path d="M47.9921 6.99829L47.3561 10.6017H67.4777L69.2991 9.0658L69.646 6.96875H47.9921V6.99829ZM51.3457 24.1291L65.2227 12.5215H58.8624L43.2797 25.724L42.875 27.9983H66.0322L66.6971 24.1291H51.3457Z" fill="#6C6C6C"/>
<path d="M77.5669 7L76.9309 10.6034H81.9324L82.5684 7H77.5669ZM76.6129 12.4937L73.9531 27.9705H78.9546L81.6144 12.4937H76.6129Z" fill="#6C6C6C"/>
<path d="M116.454 7.97468C115.789 7.32489 114.46 7 112.436 7H96.564C94.5403 7 93.0948 7.32489 92.2275 7.97468C91.5625 8.44726 91.0422 9.33333 90.6663 10.6034H117.09C117.148 9.33333 116.946 8.44726 116.454 7.97468ZM111.829 12.4937L109.863 23.9536H93.2972L95.2631 12.4937H90.2616L88.4402 23.0084C88.0933 25.0169 88.2379 26.346 88.9028 26.9958C89.5677 27.6456 90.8976 27.9705 92.9213 27.9705H108.793C110.788 27.9705 112.262 27.6456 113.13 26.9662C114.026 26.3165 114.633 24.9873 114.98 23.0084L116.801 12.4937H111.829Z" fill="#6C6C6C"/>
<path d="M129.867 7H126.426L125.79 10.6034H133.741L129.867 7ZM146.346 12.4937L144.9 20.9409L135.793 12.4937H125.472L122.812 27.9705H127.38L129.809 13.8228L144.755 27.9705H148.196L150.856 12.4937H146.346ZM147.3 7L146.664 10.6034H151.202L151.839 7H147.3Z" fill="#6C6C6C"/>
<path d="M201.796 8.00422C201.16 7.35443 199.802 7 197.72 7H185.52C183.525 7 182.079 7.32489 181.241 7.94515C180.518 8.47679 179.969 9.36287 179.593 10.6034H202.403C202.49 9.36287 202.288 8.47679 201.796 8.00422ZM200.611 16.1561C199.946 15.5063 198.616 15.1814 196.592 15.1814H183.236L183.698 12.4937H179.188L178.87 14.2954C178.523 16.2743 178.726 17.6034 179.449 18.3122C180.085 18.9325 181.415 19.2574 183.409 19.2574H196.708L195.87 24.0717H180.779L181.212 21.5907L176.586 22.4473C176.211 24.6624 176.297 26.1392 176.876 26.8776C177.454 27.616 178.842 28 181.039 28H194.395C196.39 28 197.865 27.6751 198.732 26.9958C199.628 26.346 200.235 25.0169 200.582 23.038L201.074 20.173C201.421 18.135 201.276 16.8059 200.611 16.1561Z" fill="#AF3B2B"/>
<path d="M218.272 12.4937L215.613 27.9705H220.614L223.274 12.4937H218.272ZM209.339 7L208.703 10.6034H233.566L234.202 7H209.339Z" fill="#6C6C6C"/>
<path d="M260.774 12.4937L258.808 23.9536H242.242L244.208 12.4937H239.207L237.385 23.0084C237.039 25.0169 237.212 26.346 237.877 26.9958C238.542 27.6456 239.872 27.9705 241.896 27.9705H257.767C259.762 27.9705 261.237 27.6456 262.104 26.9662C263 26.3165 263.607 24.9873 263.954 23.0084L265.775 12.4937H260.774ZM265.4 7.97468C264.735 7.32489 263.405 7 261.381 7H245.509C243.514 7 242.04 7.32489 241.173 7.97468C240.508 8.44726 239.987 9.33333 239.612 10.6034H266.036C266.122 9.33333 265.92 8.44726 265.4 7.97468Z" fill="#6C6C6C"/>
<path d="M293.874 7H275.372L274.736 10.6034H298.037C298.298 8.21097 296.91 7 293.874 7ZM288.815 20.0549C291.59 20.0549 293.296 19.9662 293.903 19.8186C295.696 19.346 296.765 18.1055 297.141 16.038L297.748 12.4937H293.094L292.718 14.7384C292.515 15.8608 291.677 16.4219 290.145 16.4219H278.696L279.361 12.4937H274.418L271.758 28H276.701L278.06 20.0549H282.773L290 28H297.199L288.815 20.0549Z" fill="#6C6C6C"/>
<path d="M309.055 24.0717L309.951 18.903H319.867L320.503 15.27H310.587L311.078 12.4937H306.019L303.359 27.9705H325.649L326.314 24.0422H309.055V24.0717ZM329.003 7H306.944L306.308 10.6034H328.367L329.003 7Z" fill="#6C6C6C"/>
</g>
<path d="M166.543 0.643711L169.649 0.643711L163.454 35.0911L160.252 35.0928L166.543 0.643711Z" fill="#ABA9A9"/>
<defs>
<clipPath id="clip0_3156_2">
<rect width="329" height="21" fill="white" transform="translate(0 7)"/>
</clipPath>
</defs>
</svg>
