<svg width="253" height="62" viewBox="0 0 253 62" fill="none" xmlns="http://www.w3.org/2000/svg">
<path d="M32.8993 23.3C39.3993 16.1 45.4993 12.2 48.4993 11.2C43.4993 7.1 37.2993 4.7 30.7993 4.5C26.1993 4.5 21.6993 5.7 17.6993 7.9C13.6993 10.2 10.3993 13.4 7.99928 17.3C5.59928 21.2 4.29928 25.7 4.09928 30.3C3.89928 34.9 4.89928 39.5 6.99928 43.5C11.1993 43.8 15.3993 43.1 19.1993 41.3C24.2993 38.6 25.3993 31.5 32.8993 23.3Z" fill="white"/>
<path d="M45.2977 21.1002C30.5977 30.5002 37.2977 37.0002 28.6977 48.7002C27.1977 50.6002 24.5977 54.3002 21.0977 56.3002C24.1977 57.5002 27.4977 58.1002 30.7977 58.1002C34.2977 58.1002 37.7977 57.4002 41.0977 56.1002C44.3977 54.8002 47.2977 52.8002 49.7977 50.3002C52.2977 47.8002 54.2977 44.8002 55.5977 41.6002C56.8977 38.3002 57.5977 34.8002 57.5977 31.3002C57.4977 26.4002 56.1977 21.5002 53.7977 17.2002C50.7977 18.2002 47.8977 19.5002 45.2977 21.1002Z" fill="white"/>
<path d="M143.798 44.8004C143.498 45.1004 143.298 45.4004 143.298 45.8004C143.298 46.1004 143.398 46.3004 143.498 46.6004C143.698 46.8004 143.898 47.0004 144.198 47.1004L143.098 49.0004H144.198L145.198 47.3004H146.198V49.0004H147.198V44.4004H145.198C144.598 44.4004 144.098 44.5004 143.798 44.8004ZM146.098 45.2004V46.5004H145.098C144.898 46.5004 144.698 46.4004 144.498 46.3004C144.398 46.2004 144.298 46.0004 144.298 45.8004C144.298 45.6004 144.398 45.4004 144.498 45.3004C144.698 45.2004 144.898 45.1004 145.098 45.1004H146.098V45.2004Z" fill="white"/>
<path d="M153.2 47.7004L151.8 44.4004H150.5V49.0004H151.6V45.9004L152.8 49.0004H153.5L154.8 46.0004V49.0004H155.8V44.4004H154.5L153.2 47.7004Z" fill="white"/>
<path d="M109.001 44.8998C108.601 44.4998 108.101 44.2998 107.501 44.2998C107.101 44.2998 106.701 44.3998 106.401 44.5998C106.101 44.7998 105.801 45.0998 105.601 45.3998C105.401 45.7998 105.301 46.1998 105.301 46.5998V46.6998C105.301 47.3998 105.501 47.9998 105.901 48.3998C106.301 48.7998 106.801 48.9998 107.501 48.9998C107.901 48.9998 108.301 48.8998 108.601 48.6998C108.901 48.4998 109.201 48.1998 109.301 47.8998C109.501 47.4998 109.601 47.0998 109.601 46.6998V46.4998C109.601 45.7998 109.401 45.2998 109.001 44.8998ZM108.301 47.8998C108.101 48.1998 107.801 48.2998 107.501 48.2998C107.201 48.2998 106.901 48.1998 106.701 47.8998C106.501 47.5998 106.401 47.2998 106.401 46.7998C106.401 46.2998 106.501 45.8998 106.701 45.5998C106.901 45.2998 107.201 45.1998 107.501 45.1998C107.801 45.1998 108.101 45.2998 108.301 45.5998C108.501 45.8998 108.601 46.1998 108.601 46.6998C108.601 47.1998 108.501 47.5998 108.301 47.8998Z" fill="white"/>
<path d="M141.3 46.3004H139.5V44.4004H138.5V49.0004H139.5V47.1004H141.3V49.0004H142.4V44.4004H141.3V46.3004Z" fill="white"/>
<path d="M114.699 45.2004H116.099V49.0004H117.199V45.2004H118.599V44.4004H114.699V45.2004Z" fill="white"/>
<path d="M111.598 45.5002C111.798 45.3002 111.998 45.1002 112.398 45.1002C112.698 45.1002 112.898 45.2002 112.998 45.4002C113.198 45.6002 113.298 45.8002 113.298 46.0002H114.298C114.298 45.5002 114.098 45.1002 113.798 44.7002C113.498 44.4002 112.998 44.2002 112.498 44.2002C111.898 44.2002 111.298 44.4002 110.998 44.8002C110.598 45.2002 110.398 45.8002 110.398 46.5002V46.6002C110.398 47.3002 110.598 47.9002 110.998 48.3002C111.398 48.7002 111.898 48.9002 112.498 48.9002C112.798 48.9002 113.098 48.8002 113.398 48.7002C113.698 48.6002 113.898 48.4002 114.098 48.1002C114.298 47.9002 114.398 47.6002 114.398 47.3002H113.398C113.398 47.5002 113.298 47.7002 113.098 47.9002C112.898 48.1002 112.698 48.1002 112.498 48.1002C112.198 48.1002 111.898 48.0002 111.698 47.7002C111.498 47.5002 111.398 47.1002 111.398 46.6002V46.4002C111.298 46.1002 111.398 45.8002 111.598 45.5002Z" fill="white"/>
<path d="M100.598 49.0004H101.598V45.2004H103.398V49.0004H104.398V44.4004H100.598V49.0004Z" fill="white"/>
<path d="M122.9 45.9004C122.9 45.4004 122.7 45.0004 122.4 44.8004C122.1 44.5004 121.7 44.4004 121.1 44.4004C120.7 44.4004 120.4 44.5004 120.1 44.6004C119.8 44.7004 119.6 44.9004 119.4 45.1004C119.2 45.3004 119.1 45.6004 119.1 45.8004H120.1C120.1 45.6004 120.2 45.5004 120.3 45.4004C120.5 45.3004 120.6 45.2004 120.9 45.2004C121.2 45.2004 121.4 45.3004 121.5 45.4004C121.6 45.5004 121.7 45.7004 121.7 46.0004V46.3004H121.1C120.4 46.3004 119.9 46.4004 119.5 46.7004C119.1 47.0004 119 47.3004 119 47.8004C119 48.2004 119.1 48.5004 119.4 48.8004C119.7 49.1004 120.1 49.2004 120.5 49.2004C121 49.2004 121.4 49.0004 121.7 48.7004C121.7 48.9004 121.8 49.0004 121.8 49.1004H122.9V49.0004C122.8 48.8004 122.7 48.4004 122.7 48.0004V45.9004H122.9ZM121.9 47.7004C121.8 47.9004 121.7 48.0004 121.5 48.1004C121.3 48.2004 121.1 48.2004 120.9 48.2004C120.7 48.2004 120.5 48.1004 120.4 48.0004C120.3 47.9004 120.2 47.7004 120.2 47.5004C120.2 47.3004 120.3 47.1004 120.5 46.9004C120.7 46.8004 121 46.7004 121.4 46.7004H122V47.7004H121.9Z" fill="white"/>
<path d="M126.598 46.6004C126.298 46.7004 125.998 46.7004 125.798 46.7004C125.498 46.7004 125.298 46.6004 125.098 46.5004C124.998 46.4004 124.898 46.1004 124.898 45.8004V44.4004H123.898V45.8004C123.898 46.4004 124.098 46.8004 124.398 47.1004C124.698 47.4004 125.198 47.6004 125.798 47.6004C126.098 47.6004 126.398 47.6004 126.598 47.5004V49.0004H127.598V44.4004H126.598V46.6004Z" fill="white"/>
<path d="M136.3 46.3004H134.5V44.4004H133.5V49.0004H134.5V47.1004H136.3V49.0004H137.4V44.4004H136.3V46.3004Z" fill="white"/>
<path d="M132.398 45.9004C132.398 45.4004 132.198 45.0004 131.898 44.8004C131.598 44.5004 131.198 44.4004 130.598 44.4004C130.198 44.4004 129.898 44.5004 129.598 44.6004C129.298 44.7004 129.098 44.9004 128.898 45.1004C128.698 45.3004 128.698 45.6004 128.698 45.8004H129.698C129.698 45.6004 129.798 45.5004 129.898 45.4004C129.998 45.3004 130.198 45.2004 130.498 45.2004C130.798 45.2004 130.998 45.3004 131.098 45.4004C131.198 45.5004 131.298 45.7004 131.298 46.0004V46.3004H130.698C129.998 46.3004 129.498 46.4004 129.098 46.7004C128.698 47.0004 128.598 47.3004 128.598 47.8004C128.598 48.2004 128.698 48.5004 128.998 48.8004C129.298 49.1004 129.698 49.2004 130.098 49.2004C130.598 49.2004 130.998 49.0004 131.298 48.7004C131.298 48.9004 131.398 49.0004 131.398 49.1004H132.498V49.0004C132.398 48.8004 132.298 48.4004 132.298 48.0004V45.9004H132.398ZM131.398 47.7004C131.298 47.9004 131.198 48.0004 130.998 48.1004C130.798 48.2004 130.598 48.2004 130.398 48.2004C130.198 48.2004 129.998 48.1004 129.898 48.0004C129.798 47.9004 129.698 47.7004 129.698 47.5004C129.698 47.3004 129.798 47.1004 129.998 46.9004C130.198 46.8004 130.498 46.7004 130.898 46.7004H131.498V47.7004H131.398Z" fill="white"/>
<path d="M158.901 44.2998C158.501 44.2998 158.101 44.3998 157.801 44.5998C157.501 44.7998 157.201 45.0998 157.101 45.3998C156.901 45.7998 156.801 46.1998 156.801 46.5998V46.6998C156.801 47.3998 157.001 47.8998 157.401 48.2998C157.801 48.6998 158.301 48.8998 159.001 48.8998C159.401 48.8998 159.701 48.7998 160.001 48.6998C160.301 48.4998 160.601 48.2998 160.701 48.0998L160.101 47.5998C159.801 47.9998 159.401 48.1998 158.901 48.1998C158.601 48.1998 158.301 48.0998 158.101 47.8998C157.901 47.6998 157.801 47.3998 157.701 46.9998H160.701V46.5998C160.701 45.8998 160.501 45.2998 160.201 44.8998C160.001 44.4998 159.501 44.2998 158.901 44.2998ZM159.801 46.2998H157.801C157.801 45.8998 158.001 45.6998 158.101 45.4998C158.301 45.2998 158.501 45.1998 158.801 45.1998C159.101 45.1998 159.301 45.2998 159.501 45.4998C159.701 45.5998 159.801 45.8998 159.801 46.2998Z" fill="white"/>
<path d="M207.701 46.4004C207.701 47.0004 207.601 47.5004 207.501 47.7004C207.401 47.9004 207.201 48.1004 207.001 48.1004H206.801V49.0004H207.101C207.601 49.0004 208.001 48.8004 208.201 48.5004C208.401 48.2004 208.601 47.6004 208.601 46.8004L208.701 45.2004H210.001V49.0004H211.001V44.4004H207.701V46.4004Z" fill="white"/>
<path d="M230.898 45.9004C230.898 45.4004 230.698 45.0004 230.398 44.8004C230.098 44.5004 229.598 44.4004 229.098 44.4004C228.698 44.4004 228.398 44.5004 228.098 44.6004C227.798 44.7004 227.598 44.9004 227.398 45.1004C227.198 45.3004 227.198 45.6004 227.198 45.8004H228.198C228.198 45.6004 228.298 45.5004 228.398 45.4004C228.498 45.3004 228.698 45.2004 228.998 45.2004C229.298 45.2004 229.498 45.3004 229.598 45.4004C229.698 45.5004 229.798 45.7004 229.798 46.0004V46.3004H229.198C228.498 46.3004 227.998 46.4004 227.598 46.7004C227.198 47.0004 227.098 47.3004 227.098 47.8004C227.098 48.2004 227.198 48.5004 227.498 48.8004C227.798 49.1004 228.198 49.2004 228.598 49.2004C229.098 49.2004 229.498 49.0004 229.798 48.7004C229.798 48.9004 229.898 49.0004 229.898 49.1004H230.998V49.0004C230.898 48.8004 230.798 48.4004 230.798 48.0004V45.9004H230.898ZM229.898 47.7004C229.798 47.9004 229.698 48.0004 229.498 48.1004C229.298 48.2004 229.098 48.2004 228.898 48.2004C228.698 48.2004 228.498 48.1004 228.398 48.0004C228.298 47.9004 228.198 47.7004 228.198 47.5004C228.198 47.3004 228.298 47.1004 228.498 46.9004C228.698 46.8004 228.998 46.7004 229.398 46.7004H229.998V47.7004H229.898Z" fill="white"/>
<path d="M204.499 44.7004C203.899 44.7004 203.499 44.9004 203.099 45.3004C203.199 44.9004 203.299 44.6004 203.599 44.3004C203.799 44.1004 204.199 43.9004 204.599 43.8004C205.099 43.7004 205.399 43.6004 205.599 43.5004C205.799 43.4004 205.899 43.2004 205.999 43.1004C206.099 42.9004 206.099 42.7004 206.099 42.4004H205.299C205.299 42.6004 205.199 42.7004 205.099 42.8004C204.999 42.9004 204.699 43.0004 204.299 43.1004C203.599 43.2004 203.099 43.6004 202.699 44.2004C202.299 44.8004 202.199 45.6004 202.199 46.6004V46.9004C202.199 47.6004 202.399 48.2004 202.799 48.6004C203.199 49.0004 203.699 49.2004 204.299 49.2004C204.899 49.2004 205.499 49.0004 205.799 48.6004C206.199 48.2004 206.399 47.7004 206.399 47.0004V46.9004C206.399 46.2004 206.199 45.7004 205.899 45.3004C205.599 44.9004 205.099 44.7004 204.499 44.7004ZM205.099 47.9004C204.899 48.1004 204.599 48.3004 204.299 48.3004C203.999 48.3004 203.699 48.2004 203.499 47.9004C203.299 47.6004 203.199 47.3004 203.199 46.9004C203.199 46.4004 203.299 46.1004 203.499 45.9004C203.699 45.7004 203.999 45.6004 204.299 45.6004C204.599 45.6004 204.899 45.7004 205.099 45.9004C205.299 46.1004 205.399 46.4004 205.399 46.8004C205.399 47.3004 205.299 47.6004 205.099 47.9004Z" fill="white"/>
<path d="M200.798 44.8998C200.398 44.4998 199.898 44.2998 199.298 44.2998C198.898 44.2998 198.498 44.3998 198.198 44.5998C197.898 44.7998 197.598 45.0998 197.398 45.3998C197.198 45.7998 197.098 46.1998 197.098 46.5998V46.6998C197.098 47.3998 197.298 47.9998 197.698 48.3998C198.098 48.7998 198.598 48.9998 199.298 48.9998C199.698 48.9998 200.098 48.8998 200.398 48.6998C200.698 48.4998 200.998 48.1998 201.098 47.8998C201.298 47.4998 201.398 47.0998 201.398 46.6998V46.4998C201.398 45.7998 201.198 45.2998 200.798 44.8998ZM200.198 47.8998C199.998 48.1998 199.698 48.2998 199.398 48.2998C199.098 48.2998 198.798 48.1998 198.598 47.8998C198.398 47.5998 198.298 47.2998 198.298 46.7998C198.298 46.2998 198.398 45.8998 198.598 45.5998C198.798 45.2998 199.098 45.1998 199.398 45.1998C199.698 45.1998 199.998 45.2998 200.198 45.5998C200.398 45.8998 200.498 46.1998 200.498 46.6998C200.398 47.1998 200.298 47.5998 200.198 47.8998Z" fill="white"/>
<path d="M221 44.4004H217.8L217.7 46.2004C217.7 46.6004 217.6 47.0004 217.5 47.3004C217.4 47.6004 217.2 47.9004 216.9 48.2004H216.5V50.4004H217.5V49.0004H220.4V50.4004H221.4V48.2004H221V44.4004ZM219.9 48.2004H218.1C218.4 47.7004 218.6 47.0004 218.7 46.2004V45.3004H219.9V48.2004Z" fill="white"/>
<path d="M234.8 46.3004H233V44.4004H232V49.0004H233V47.1004H234.8V49.0004H235.9V44.4004H234.8V46.3004Z" fill="white"/>
<path d="M225.101 46.3004H223.301V44.4004H222.301V49.0004H223.301V47.1004H225.101V49.0004H226.201V44.4004H225.101V46.3004Z" fill="white"/>
<path d="M239.8 46.3004H238V44.4004H237V49.0004H238V47.1004H239.8V49.0004H240.9V44.4004H239.8V46.3004Z" fill="white"/>
<path d="M215.898 45.9004C215.898 45.4004 215.698 45.0004 215.398 44.8004C215.098 44.5004 214.698 44.4004 214.098 44.4004C213.698 44.4004 213.398 44.5004 213.098 44.6004C212.798 44.7004 212.598 44.9004 212.398 45.1004C212.198 45.3004 212.198 45.6004 212.198 45.8004H213.198C213.198 45.6004 213.298 45.5004 213.398 45.4004C213.498 45.3004 213.698 45.2004 213.998 45.2004C214.298 45.2004 214.498 45.3004 214.598 45.4004C214.698 45.5004 214.798 45.7004 214.798 46.0004V46.3004H214.198C213.498 46.3004 212.998 46.4004 212.598 46.7004C212.198 47.0004 212.098 47.3004 212.098 47.8004C212.098 48.2004 212.198 48.5004 212.498 48.8004C212.798 49.1004 213.198 49.2004 213.598 49.2004C214.098 49.2004 214.498 49.0004 214.798 48.7004C214.798 48.9004 214.898 49.0004 214.898 49.1004H215.998V49.0004C215.898 48.8004 215.798 48.4004 215.798 48.0004V45.9004H215.898ZM214.798 47.7004C214.698 47.9004 214.598 48.0004 214.398 48.1004C214.198 48.2004 213.998 48.2004 213.798 48.2004C213.598 48.2004 213.398 48.1004 213.298 48.0004C213.198 47.9004 213.098 47.7004 213.098 47.5004C213.098 47.3004 213.198 47.1004 213.398 46.9004C213.598 46.8004 213.898 46.7004 214.298 46.7004H214.898V47.7004H214.798Z" fill="white"/>
<path d="M179.601 46.3004H177.801V44.4004H176.801V49.0004H177.801V47.1004H179.601V49.0004H180.701V44.4004H179.601V46.3004Z" fill="white"/>
<path d="M243.598 44.4004C242.998 44.4004 242.598 44.5004 242.298 44.8004C241.998 45.1004 241.798 45.4004 241.798 45.8004C241.798 46.1004 241.898 46.3004 241.998 46.6004C242.198 46.8004 242.398 47.0004 242.698 47.1004L241.598 49.0004H242.698L243.698 47.3004H244.698V49.0004H245.698V44.4004H243.598ZM244.598 46.5004H243.598C243.398 46.5004 243.198 46.4004 242.998 46.3004C242.898 46.2004 242.798 46.0004 242.798 45.8004C242.798 45.6004 242.898 45.4004 242.998 45.3004C243.198 45.2004 243.398 45.1004 243.598 45.1004H244.598V46.5004Z" fill="white"/>
<path d="M165.699 44.4004H162.499L162.399 46.2004C162.399 46.6004 162.299 47.0004 162.199 47.3004C162.099 47.6004 161.899 47.9004 161.599 48.2004H161.199V50.4004H162.199V49.0004H165.099V50.4004H166.099V48.2004H165.499V44.4004H165.699ZM164.699 48.2004H162.899C163.199 47.7004 163.399 47.0004 163.499 46.2004V45.3004H164.699V48.2004Z" fill="white"/>
<path d="M168.1 47.5004V44.4004H167V49.0004H168.1L169.9 45.9004V49.0004H170.9V44.4004H169.9L168.1 47.5004Z" fill="white"/>
<path d="M193.7 44.8998C193.3 44.4998 192.8 44.2998 192.2 44.2998C191.8 44.2998 191.4 44.3998 191.1 44.5998C190.8 44.7998 190.5 45.0998 190.3 45.3998C190.1 45.7998 190 46.1998 190 46.5998V46.6998C190 47.3998 190.2 47.9998 190.6 48.3998C191 48.7998 191.5 48.9998 192.2 48.9998C192.6 48.9998 193 48.8998 193.3 48.6998C193.6 48.4998 193.9 48.1998 194 47.8998C194.2 47.4998 194.3 47.0998 194.3 46.6998V46.4998C194.3 45.7998 194.1 45.2998 193.7 44.8998ZM193 47.8998C192.8 48.1998 192.5 48.2998 192.2 48.2998C191.9 48.2998 191.6 48.1998 191.4 47.8998C191.2 47.5998 191.1 47.2998 191.1 46.7998C191.1 46.2998 191.2 45.8998 191.4 45.5998C191.6 45.2998 191.9 45.1998 192.2 45.1998C192.5 45.1998 192.8 45.2998 193 45.5998C193.2 45.8998 193.3 46.1998 193.3 46.6998C193.3 47.1998 193.2 47.5998 193 47.8998Z" fill="white"/>
<path d="M174.598 46.6004C174.298 46.7004 173.998 46.7004 173.798 46.7004C173.498 46.7004 173.298 46.6004 173.098 46.5004C172.998 46.4004 172.898 46.1004 172.898 45.8004V44.4004H171.898V45.8004C171.898 46.4004 172.098 46.8004 172.398 47.1004C172.698 47.4004 173.198 47.6004 173.798 47.6004C174.098 47.6004 174.398 47.6004 174.598 47.5004V49.0004H175.598V44.4004H174.598V46.6004Z" fill="white"/>
<path d="M186.699 49.0004H187.799V45.2004H189.799V44.4004H186.699V49.0004Z" fill="white"/>
<path d="M185.2 44.8998C184.8 44.4998 184.3 44.2998 183.7 44.2998C183.3 44.2998 182.9 44.3998 182.6 44.5998C182.3 44.7998 182 45.0998 181.8 45.3998C181.6 45.7998 181.5 46.1998 181.5 46.5998V46.6998C181.5 47.3998 181.7 47.9998 182.1 48.3998C182.5 48.7998 183 48.9998 183.7 48.9998C184.1 48.9998 184.5 48.8998 184.8 48.6998C185.1 48.4998 185.4 48.1998 185.5 47.8998C185.7 47.4998 185.8 47.0998 185.8 46.6998V46.4998C185.8 45.7998 185.6 45.2998 185.2 44.8998ZM184.5 47.8998C184.3 48.1998 184 48.2998 183.7 48.2998C183.4 48.2998 183.1 48.1998 182.9 47.8998C182.7 47.5998 182.6 47.2998 182.6 46.7998C182.6 46.2998 182.7 45.8998 182.9 45.5998C183.1 45.2998 183.4 45.1998 183.7 45.1998C184 45.1998 184.3 45.2998 184.5 45.5998C184.7 45.8998 184.8 46.1998 184.8 46.6998C184.8 47.1998 184.7 47.5998 184.5 47.8998Z" fill="white"/>
<path d="M243.899 14.2002H241.699V33.0002H243.899V14.2002Z" fill="white"/>
<path d="M109.301 32.9002L113.301 19.7002H111.101L108.601 29.6002L106.001 19.7002H103.801L107.701 32.9002H109.301Z" fill="white"/>
<path d="M116.798 17.5004C117.198 17.5004 117.498 17.4004 117.698 17.1004C117.898 16.9004 117.998 16.6004 117.998 16.2004C117.998 15.8004 117.898 15.5004 117.698 15.3004C117.498 15.0004 117.198 14.9004 116.798 14.9004C116.398 14.9004 116.098 15.0004 115.898 15.3004C115.698 15.6004 115.598 15.9004 115.598 16.2004C115.598 16.5004 115.698 16.9004 115.898 17.1004C116.098 17.4004 116.398 17.5004 116.798 17.5004Z" fill="white"/>
<path d="M134.899 17.5004C135.299 17.5004 135.599 17.4004 135.799 17.1004C135.999 16.9004 136.099 16.6004 136.099 16.2004C136.099 15.8004 135.999 15.5004 135.799 15.3004C135.599 15.0004 135.299 14.9004 134.899 14.9004C134.499 14.9004 134.199 15.0004 133.999 15.3004C133.799 15.6004 133.699 15.9004 133.699 16.2004C133.699 16.5004 133.799 16.9004 133.999 17.1004C134.199 17.4004 134.499 17.5004 134.899 17.5004Z" fill="white"/>
<path d="M136.001 19.7002H133.801V32.9002H136.001V19.7002Z" fill="white"/>
<path d="M117.899 19.7002H115.699V32.9002H117.899V19.7002Z" fill="white"/>
<path d="M213.501 17.5004C213.901 17.5004 214.201 17.4004 214.401 17.1004C214.601 16.9004 214.701 16.6004 214.701 16.2004C214.701 15.8004 214.601 15.5004 214.401 15.3004C214.201 15.0004 213.901 14.9004 213.501 14.9004C213.101 14.9004 212.801 15.0004 212.601 15.3004C212.401 15.6004 212.301 15.9004 212.301 16.2004C212.301 16.5004 212.401 16.9004 212.601 17.1004C212.801 17.4004 213.101 17.5004 213.501 17.5004Z" fill="white"/>
<path d="M214.598 19.7002H212.398V32.9002H214.598V19.7002Z" fill="white"/>
<path d="M158.101 24.2004V32.9004H160.201V24.1004C160.201 21.0004 159.001 19.4004 156.601 19.4004C155.301 19.4004 154.201 20.0004 153.401 21.1004L153.301 19.7004H151.301V32.9004H153.501V23.3004C153.801 22.7004 154.101 22.3004 154.501 21.9004C154.901 21.5004 155.401 21.4004 156.001 21.4004C156.701 21.4004 157.201 21.6004 157.501 22.1004C157.901 22.5004 158.101 23.2004 158.101 24.2004Z" fill="white"/>
<path d="M182.5 19.1002L182.3 26.0002V32.9002H184.6V15.2002H181.7L177 29.7002L172.4 15.2002H169.5V32.9002H171.7V26.0002L171.5 19.1002L176.2 32.9002H177.9L182.5 19.1002Z" fill="white"/>
<path d="M194.598 31C194.098 31.2 193.598 31.4 192.898 31.4C191.898 31.4 191.098 31.1 190.598 30.4C190.098 29.8 189.798 28.7 189.798 27.3V27H197.198V25.6C197.198 23.5 196.798 22 195.998 21C195.198 20 194.098 19.5 192.498 19.5C190.998 19.5 189.798 20.1 188.898 21.2C187.998 22.3 187.598 23.9 187.598 25.8V27.4C187.598 29.3 188.098 30.7 188.898 31.7C189.798 32.7 190.998 33.2 192.698 33.2C194.598 33.2 195.998 32.5 196.998 31.2L195.898 29.8C195.598 30.3 195.098 30.7 194.598 31ZM190.598 22.3C190.998 21.7 191.698 21.4 192.598 21.4C193.398 21.4 193.998 21.7 194.398 22.2C194.798 22.7 194.998 23.6 195.098 24.9V25.2H189.898C189.898 23.8 190.198 22.9 190.598 22.3Z" fill="white"/>
<path d="M77.2 15.2002H71.5V33.0002H73.7V26.0002H77.3C78.9 26.0002 80.2 25.5002 81.1 24.6002C82 23.7002 82.5 22.4002 82.5 20.6002C82.5 19.0002 82 17.6002 81.1 16.7002C80.1 15.7002 78.8 15.2002 77.2 15.2002ZM79.5 23.2002C79 23.8002 78.2 24.1002 77.2 24.1002H73.8V17.1002H77.2C78.2 17.1002 78.9 17.4002 79.4 18.1002C79.9 18.7002 80.2 19.6002 80.2 20.7002C80.3 21.7002 80 22.6002 79.5 23.2002Z" fill="white"/>
<path d="M238.601 32.7C238.301 32 238.201 31.1 238.201 30.1V23.4C238.201 22.1 237.801 21.1 237.101 20.5C236.401 19.8 235.401 19.5 234.001 19.5C233.201 19.5 232.401 19.7 231.701 20C231.001 20.3 230.501 20.8 230.101 21.5C229.701 22.1 229.501 22.8 229.501 23.4H231.701C231.701 22.8 231.901 22.3 232.301 21.9C232.701 21.5 233.201 21.3 233.901 21.3C234.601 21.3 235.101 21.5 235.501 21.8C235.901 22.1 236.001 22.7 236.001 23.5V24.9H234.401C232.801 24.9 231.601 25.3 230.701 26.1C229.801 26.9 229.301 28 229.301 29.3C229.301 30.5 229.601 31.5 230.301 32.1C231.001 32.8 231.901 33.1 233.101 33.1C234.301 33.1 235.301 32.5 236.001 31.4C236.101 32.1 236.201 32.6 236.301 32.8H238.501V32.7H238.601ZM236.001 29.7C235.801 30.1 235.401 30.5 235.001 30.8C234.501 31.1 234.001 31.2 233.501 31.2C232.801 31.2 232.301 31 232.001 30.7C231.701 30.4 231.501 29.8 231.501 29.1C231.501 28.3 231.801 27.7 232.401 27.2C233.001 26.8 233.801 26.5 234.801 26.5H236.001V29.7Z" fill="white"/>
<path d="M220.398 22.3004C220.898 21.7004 221.598 21.3004 222.498 21.3004C223.198 21.3004 223.798 21.5004 224.198 22.0004C224.598 22.5004 224.898 23.2004 224.898 24.2004H226.898C226.898 22.7004 226.398 21.6004 225.598 20.7004C224.798 19.8004 223.698 19.4004 222.398 19.4004C220.798 19.4004 219.498 19.9004 218.698 21.0004C217.798 22.0004 217.398 23.5004 217.398 25.5004V27.0004C217.398 29.0004 217.798 30.6004 218.698 31.6004C219.598 32.6004 220.798 33.1004 222.398 33.1004C223.598 33.1004 224.698 32.7004 225.498 31.9004C226.398 31.1004 226.798 30.0004 226.898 28.7004H224.898C224.898 29.5004 224.598 30.2004 224.198 30.6004C223.798 31.0004 223.198 31.3004 222.498 31.3004C221.498 31.3004 220.798 31.0004 220.298 30.3004C219.798 29.7004 219.598 28.6004 219.598 27.0004V25.3004C219.698 23.9004 219.898 22.9004 220.398 22.3004Z" fill="white"/>
<path d="M208.901 32.9002V14.2002H206.701V21.0002C206.001 20.0002 205.001 19.5002 203.701 19.5002C202.301 19.5002 201.201 20.0002 200.401 21.1002C199.601 22.2002 199.301 23.7002 199.301 25.8002V27.2002C199.301 29.1002 199.701 30.6002 200.501 31.7002C201.301 32.8002 202.401 33.3002 203.701 33.3002C205.001 33.3002 206.001 32.7002 206.701 31.6002L206.801 33.0002H208.901V32.9002ZM206.701 29.6002C206.201 30.7002 205.401 31.2002 204.301 31.2002C203.301 31.2002 202.601 30.9002 202.201 30.2002C201.801 29.5002 201.501 28.4002 201.501 26.9002V25.6002C201.501 24.2002 201.701 23.1002 202.201 22.4002C202.601 21.7002 203.401 21.4002 204.301 21.4002C205.301 21.4002 206.101 21.9002 206.701 23.0002V29.6002Z" fill="white"/>
<path d="M89.6977 19.5C88.5977 19.5 87.7977 20 87.1977 21.1V19.8H85.0977V33H87.2977V23.6C87.6977 22.4 88.4977 21.8 89.5977 21.8C89.8977 21.8 90.2977 21.8 90.5977 21.9V19.8C90.2977 19.5 89.9977 19.5 89.6977 19.5Z" fill="white"/>
<path d="M102.2 27V25.6C102.2 23.7 101.7 22.2 100.8 21.1C99.9 20 98.6 19.5 97.1 19.5C95.6 19.5 94.3 20.1 93.4 21.2C92.5 22.3 92 23.8 92 25.8V27.2C92 29 92.5 30.5 93.4 31.6C94.3 32.7 95.6 33.2 97.1 33.2C98.6 33.2 99.9 32.6 100.8 31.5C101.8 30.4 102.2 28.9 102.2 27ZM100.1 27.2C100 30 99.1 31.3 97.2 31.3C96.3 31.3 95.6 30.9 95 30.1C94.5 29.3 94.2 28.2 94.2 26.9V25.6C94.2 24.3 94.5 23.2 95 22.4C95.5 21.6 96.2 21.2 97.1 21.2C98 21.2 98.7 21.6 99.3 22.4C99.8 23.2 100.1 24.2 100.1 25.6V27.2Z" fill="white"/>
<path d="M130.299 14.2002H128.099V21.0002C127.399 20.0002 126.399 19.5002 125.099 19.5002C123.699 19.5002 122.599 20.0002 121.799 21.1002C120.999 22.2002 120.699 23.7002 120.699 25.8002V27.2002C120.699 29.1002 121.099 30.6002 121.899 31.7002C122.699 32.8002 123.799 33.3002 125.099 33.3002C126.399 33.3002 127.399 32.7002 128.099 31.6002L128.199 33.0002H130.199V14.2002H130.299ZM128.199 29.6002C127.699 30.7002 126.899 31.2002 125.799 31.2002C124.799 31.2002 124.099 30.9002 123.699 30.2002C123.299 29.5002 122.999 28.4002 122.999 26.9002V25.6002C122.999 24.2002 123.199 23.1002 123.699 22.4002C124.099 21.7002 124.899 21.4002 125.799 21.4002C126.799 21.4002 127.599 21.9002 128.199 23.0002V29.6002Z" fill="white"/>
<path d="M147.998 23.4C147.998 22.1 147.598 21.1 146.898 20.5C146.198 19.8 145.198 19.5 143.798 19.5C142.998 19.5 142.198 19.7 141.498 20C140.798 20.3 140.298 20.8 139.898 21.5C139.498 22.1 139.298 22.8 139.298 23.4H141.498C141.498 22.8 141.698 22.3 142.098 21.9C142.498 21.5 142.998 21.3 143.698 21.3C144.398 21.3 144.898 21.5 145.298 21.8C145.598 22.1 145.798 22.7 145.798 23.5V24.9H144.198C142.598 24.9 141.398 25.3 140.498 26.1C139.598 26.9 139.098 28 139.098 29.3C139.098 30.5 139.398 31.5 140.098 32.1C140.798 32.8 141.698 33.1 142.898 33.1C144.098 33.1 145.098 32.5 145.798 31.4C145.898 32.1 145.998 32.6 146.098 32.8H148.298V32.6C147.998 31.9 147.898 31 147.898 30V23.4H147.998ZM145.898 29.7C145.698 30.1 145.298 30.5 144.898 30.8C144.398 31.1 143.898 31.2 143.398 31.2C142.698 31.2 142.198 31 141.898 30.7C141.598 30.4 141.398 29.8 141.398 29.1C141.398 28.3 141.698 27.7 142.298 27.2C142.898 26.8 143.698 26.5 144.698 26.5H145.898V29.7Z" fill="white"/>
</svg>
