<svg width="369" height="36" viewBox="0 0 369 36" fill="none" xmlns="http://www.w3.org/2000/svg">
<path d="M6.38779 6H0L1.68612 10.1181H7.97663L6.38779 6ZM25.3242 6L22.4383 10.1181H28.1452L31.1607 6H25.3242ZM20.9468 12.2785L13.1971 23.4177L8.85211 12.2785H2.59402L9.88972 29.9662H13.7483L26.5888 12.2785H20.9468Z" fill="#F25733"/>
<path d="M37.5844 6L36.8711 10.1181H42.4806L43.194 6H37.5844ZM36.5144 12.2785L33.5312 29.9662H39.1408L42.124 12.2785H36.5144Z" fill="#CDCDCD"/>
<path d="M53.8252 6.00055L53.1119 10.1187H75.6799L77.7227 8.36342L78.1118 5.9668H53.8252V6.00055ZM57.5866 25.5786L73.1507 12.3128H66.0171L48.5399 27.4014L48.0859 30.0005H74.0586L74.8044 25.5786H57.5866Z" fill="#CDCDCD"/>
<path d="M86.9985 6L86.2851 10.1181H91.8947L92.6081 6H86.9985ZM85.9284 12.2785L82.9453 29.9662H88.5549L91.538 12.2785H85.9284Z" fill="#CDCDCD"/>
<path d="M130.609 7.11392C129.863 6.37131 128.372 6 126.102 6H108.3C106.031 6 104.409 6.37131 103.437 7.11392C102.691 7.65401 102.107 8.66667 101.686 10.1181H131.322C131.387 8.66667 131.16 7.65401 130.609 7.11392ZM125.421 12.2785L123.216 25.3755H104.636L106.841 12.2785H101.232L99.189 24.2954C98.7999 26.5907 98.962 28.1097 99.7078 28.8523C100.454 29.5949 101.945 29.9662 104.215 29.9662H122.016C124.254 29.9662 125.907 29.5949 126.88 28.8186C127.885 28.076 128.566 26.557 128.955 24.2954L130.998 12.2785H125.421Z" fill="#CDCDCD"/>
<path d="M145.654 6H141.795L141.082 10.1181H149.999L145.654 6ZM164.136 12.2785L162.515 21.9325L152.301 12.2785H140.725L137.742 29.9662H142.865L145.589 13.7975L162.353 29.9662H166.212L169.195 12.2785H164.136ZM165.206 6L164.493 10.1181H169.584L170.297 6H165.206Z" fill="#CDCDCD"/>
<path d="M226.326 7.14768C225.613 6.40506 224.089 6 221.755 6H208.071C205.834 6 204.212 6.37131 203.272 7.08017C202.461 7.68776 201.845 8.70042 201.424 10.1181H227.007C227.105 8.70042 226.878 7.68776 226.326 7.14768ZM224.997 16.4641C224.251 15.7215 222.76 15.3502 220.49 15.3502H205.509L206.028 12.2785H200.97L200.613 14.3376C200.224 16.5992 200.451 18.1181 201.262 18.9283C201.975 19.6371 203.467 20.0084 205.704 20.0084H220.62L219.679 25.5105H202.753L203.24 22.6751L198.052 23.654C197.63 26.1857 197.727 27.8734 198.376 28.7173C199.024 29.5612 200.581 30 203.045 30H218.026C220.263 30 221.917 29.6287 222.889 28.8523C223.895 28.1097 224.576 26.5907 224.965 24.3291L225.516 21.0549C225.905 18.7257 225.743 17.2068 224.997 16.4641Z" fill="#F25733"/>
<path d="M244.811 12.2785L241.828 29.9662H247.437L250.42 12.2785H244.811ZM234.791 6L234.078 10.1181H261.964L262.677 6H234.791Z" fill="#CDCDCD"/>
<path d="M292.475 12.2785L290.27 25.3755H271.69L273.895 12.2785H268.285L266.243 24.2954C265.854 26.5907 266.048 28.1097 266.794 28.8523C267.54 29.5949 269.031 29.9662 271.301 29.9662H289.102C291.34 29.9662 292.994 29.5949 293.966 28.8186C294.971 28.076 295.652 26.557 296.042 24.2954L298.084 12.2785H292.475ZM297.663 7.11392C296.917 6.37131 295.425 6 293.156 6H275.354C273.117 6 271.463 6.37131 270.49 7.11392C269.745 7.65401 269.161 8.66667 268.739 10.1181H298.376C298.473 8.66667 298.246 7.65401 297.663 7.11392Z" fill="#CDCDCD"/>
<path d="M329.602 6H308.85L308.137 10.1181H334.271C334.563 7.38397 333.007 6 329.602 6ZM323.928 20.9198C327.041 20.9198 328.954 20.8186 329.635 20.6498C331.645 20.1097 332.845 18.692 333.266 16.3291L333.947 12.2785H328.727L328.305 14.8439C328.078 16.1266 327.138 16.7679 325.419 16.7679H312.579L313.325 12.2785H307.78L304.797 30H310.342L311.866 20.9198H317.151L325.257 30H333.331L323.928 20.9198Z" fill="#CDCDCD"/>
<path d="M346.63 25.5106L347.635 19.6034H358.757L359.47 15.4515H348.349L348.9 12.2785H343.225L340.242 29.9662H365.242L365.988 25.4768H346.63V25.5106ZM369.003 6H344.263L343.55 10.1181H368.29L369.003 6Z" fill="#CDCDCD"/>
<path d="M186.293 0.557774L189.399 0.557774L183.204 35.0052L180.002 35.0069L186.293 0.557774Z" fill="#ABA9A9"/>
</svg>
