<svg width="24" height="30" viewBox="0 0 24 30" fill="none" xmlns="http://www.w3.org/2000/svg">
<path d="M22.5466 9.47603L21.1393 8.0687C20.9634 7.89278 20.8461 7.65822 20.8461 7.42367V5.89906C20.8461 4.08126 19.3801 2.61529 17.5623 2.61529H16.0377C15.8032 2.61529 15.5686 2.49801 15.3927 2.32209L14.044 0.9734C12.7539 -0.316654 10.7016 -0.316654 9.41153 0.9734L8.06284 2.38073C7.88692 2.55665 7.65236 2.67393 7.41781 2.67393H5.8932C4.0754 2.67393 2.60943 4.13989 2.60943 5.9577V7.48231C2.60943 7.71686 2.49215 7.95142 2.31623 8.12733L0.96754 9.47603C-0.322513 10.7661 -0.322513 12.8184 0.96754 14.1085L2.31623 15.4572C2.49215 15.6331 2.60943 15.8677 2.60943 16.1022V17.6268C2.60943 19.4446 4.0754 20.9106 5.8932 20.9106V27.4195C5.8932 28.2991 6.36231 29.12 7.12462 29.5891C7.88692 30.0582 8.82514 30.1169 9.58745 29.7064L11.7571 28.5923L13.9267 29.7064C14.2786 29.8823 14.689 29.9996 15.0409 29.9996C15.51 29.9996 15.9791 29.8823 16.3895 29.5891C17.1519 29.12 17.621 28.2991 17.621 27.4195V20.9106C19.4388 20.9106 20.9047 19.4446 20.9047 17.6268V16.1022C20.9047 15.8677 21.022 15.6331 21.1979 15.4572L22.5466 14.1085C23.778 12.8184 23.778 10.7074 22.5466 9.47603ZM15.1581 27.5368C15.0995 27.5954 15.0409 27.5954 14.9822 27.5368L12.2848 26.1881C11.933 26.0122 11.5812 26.0122 11.2293 26.1881L8.53195 27.5954C8.47331 27.6541 8.41467 27.6541 8.35603 27.5954C8.29739 27.5368 8.23875 27.4781 8.23875 27.4195V21.3211L9.47017 22.5525C10.1152 23.1975 10.9361 23.4907 11.7571 23.4907C12.578 23.4907 13.4576 23.1975 14.044 22.5525L15.2754 21.3211V27.3609C15.2754 27.4781 15.2168 27.5368 15.1581 27.5368ZM20.8461 12.408L19.4974 13.7567C18.8524 14.4017 18.5592 15.2226 18.5592 16.0436V17.6268C18.5592 18.1546 18.1487 18.565 17.621 18.565H16.0964C15.2168 18.565 14.3958 18.9169 13.8094 19.5033L12.4607 20.852C12.1089 21.2038 11.5225 21.2038 11.1707 20.852L9.822 19.5033C9.17697 18.8582 8.35603 18.565 7.53509 18.565H5.8932C5.36545 18.565 4.95498 18.1546 4.95498 17.6268V16.1022C4.95498 15.2226 4.60315 14.4017 4.01676 13.8153L2.66807 12.4666C2.49215 12.2321 2.37487 11.9975 2.37487 11.7629C2.37487 11.5284 2.49215 11.2938 2.66807 11.1179L4.01676 9.76922C4.66179 9.12419 4.95498 8.30325 4.95498 7.48231V5.89906C4.95498 5.37131 5.36545 4.96084 5.8932 4.96084H7.41781C8.29739 4.96084 9.11833 4.60901 9.70472 4.02262L11.0534 2.67393C11.4052 2.32209 11.9916 2.32209 12.3435 2.67393L13.6922 4.02262C14.3372 4.66764 15.1581 4.96084 15.9791 4.96084H17.621C18.1487 4.96084 18.5592 5.37131 18.5592 5.89906V7.42367C18.5592 8.30325 18.911 9.12419 19.4974 9.71058L20.8461 11.0593C21.022 11.2352 21.1393 11.4697 21.1393 11.7043C21.1393 11.9389 21.022 12.2321 20.8461 12.408Z" fill="#17232E"/>
<path d="M15.5699 9.24246L10.5856 14.2268L7.94684 11.588C7.47773 11.1189 6.77407 11.1189 6.30496 11.588C5.83585 12.0571 5.83585 12.7608 6.30496 13.2299L9.82329 16.6896C9.9992 16.9241 10.2924 17.0414 10.5856 17.0414C10.8788 17.0414 11.172 16.9241 11.4065 16.6896L17.2118 10.8843C17.6809 10.4152 17.6809 9.71157 17.2118 9.24246C16.8013 8.77335 16.039 8.77335 15.5699 9.24246Z" fill="#17232E"/>
</svg>
