<svg width="33" height="25" viewBox="0 0 33 25" fill="none" xmlns="http://www.w3.org/2000/svg">
<path d="M20.625 0.652344H3.53571C1.59107 0.652344 0 2.24341 0 4.18806V17.1523C0 19.097 1.59107 20.6881 3.53571 20.6881H4.18393C4.47857 22.6916 6.1875 24.2238 8.25 24.2238C10.3125 24.2238 12.0214 22.6916 12.3161 20.6881H21.8625C22.1571 22.6916 23.8661 24.2238 25.9286 24.2238C27.9911 24.2238 29.7 22.6916 29.9946 20.6881H31.8214C32.4696 20.6881 33 20.1577 33 19.5095V14.7952C33 14.5595 32.9411 14.2648 32.7643 14.0881L29.3464 9.49163L28.2268 6.66306C28.05 6.19163 27.6375 5.89699 27.1071 5.89699H24.1607V4.12913C24.1607 2.24341 22.5696 0.652344 20.625 0.652344ZM8.25 21.8666C7.48393 21.8666 6.83571 21.3952 6.6 20.6881H9.9C9.66429 21.3952 9.01607 21.8666 8.25 21.8666ZM19.4464 18.3309H3.53571C2.8875 18.3309 2.35714 17.8006 2.35714 17.1523V4.18806C2.35714 3.53984 2.8875 3.00949 3.53571 3.00949H20.625C21.2732 3.00949 21.8036 3.53984 21.8036 4.18806V17.1523C21.8036 17.8006 21.2732 18.3309 20.625 18.3309H19.4464ZM25.9286 21.8666C25.1625 21.8666 24.5143 21.3952 24.2786 20.6881H27.5786C27.3429 21.3952 26.6946 21.8666 25.9286 21.8666ZM26.2821 8.31306L27.1661 10.4934C27.225 10.6113 27.2839 10.6702 27.3429 10.7881L30.6429 15.2077V18.3309H23.925C24.0429 17.9773 24.1607 17.5648 24.1607 17.1523V8.31306H26.2821Z" fill="#17232E"/>
<path d="M15.0862 7.54619L10.0772 12.5551L7.42545 9.90333C6.95402 9.4319 6.24687 9.4319 5.77545 9.90333C5.30402 10.3748 5.30402 11.0819 5.77545 11.5533L9.31116 15.089C9.54688 15.3248 9.84152 15.4426 10.1362 15.4426C10.4308 15.4426 10.7254 15.3248 10.9612 15.089L16.7951 9.25512C17.2665 8.78369 17.2665 8.07655 16.7951 7.60512C16.3237 7.13369 15.5576 7.07476 15.0862 7.54619Z" fill="#17232E"/>
</svg>
