<svg width="31" height="27" viewBox="0 0 31 27" fill="none" xmlns="http://www.w3.org/2000/svg">
<path d="M5.11476 20.4882H10.2398C10.8092 20.4882 11.2751 20.0223 11.2751 19.4529V11.6877C11.2751 11.1183 10.8092 10.6524 10.2398 10.6524H7.1337C7.39253 5.99327 11.2233 2.36953 15.9342 2.36953C20.6451 2.36953 24.4762 5.99327 24.7347 10.6524H21.6286C21.0592 10.6524 20.5933 11.1183 20.5933 11.6877V19.4529C20.5933 20.0223 21.0592 20.4882 21.6286 20.4882H24.6312C24.4759 21.1612 24.217 21.9895 23.6993 22.5071C23.2852 22.9213 22.8193 23.0766 22.1981 23.0766H20.3862C19.9721 22.1448 19.092 21.5236 18.0049 21.5236H13.8635C12.414 21.5236 11.2751 22.6624 11.2751 24.1119C11.2751 25.5614 12.414 26.7003 13.8635 26.7003H18.0049C19.0403 26.7003 19.9721 26.0791 20.3862 25.1473H22.1981C23.3887 25.1473 24.4241 24.7332 25.2006 23.9566C26.236 22.9213 26.5983 21.4718 26.7536 20.4882H26.8054C29.1349 20.4882 30.9986 18.6246 30.9986 16.295V14.8455C30.9986 12.5678 29.1349 10.7041 26.8572 10.6524C26.5466 4.85438 21.7839 0.298828 15.9345 0.298828C10.085 0.298828 5.32183 4.85438 5.06329 10.6524C2.78551 10.6524 0.921875 12.5678 0.921875 14.8455V16.295C0.921875 18.6246 2.78551 20.4882 5.11505 20.4882H5.11476ZM18.0052 24.6296H13.8638C13.6049 24.6296 13.3461 24.3708 13.3461 24.1119C13.3461 23.8531 13.6049 23.5943 13.8638 23.5943H18.0052C18.264 23.5943 18.5229 23.8531 18.5229 24.1119C18.5229 24.3708 18.264 24.6296 18.0052 24.6296ZM22.6643 12.7231H23.6996V18.4175H22.6643V12.7231ZM28.8764 14.8455V16.295C28.8764 17.4857 27.9446 18.4175 26.7539 18.4175H25.7703V12.7231H26.7539C27.9446 12.7231 28.8764 13.6549 28.8764 14.8455ZM9.2047 18.4175H8.16934V12.7231H9.2047V18.4175ZM2.99258 14.8455C2.99258 13.6549 3.9244 12.7231 5.11505 12.7231H6.09864V18.4175H5.11505C3.9244 18.4175 2.99258 17.4857 2.99258 16.295V14.8455Z" fill="#17232E"/>
</svg>
