<svg width="7" height="7" viewBox="0 0 7 7" fill="none" xmlns="http://www.w3.org/2000/svg">
    <path d="M0.848438 2.08594C0.921354 2.01302 1.00769 1.97656 1.10744 1.97656C1.20699 1.97656 1.29323 2.01302 1.36615 2.08594L3.5026 4.2224L5.64635 2.07865C5.71441 2.01059 5.79948 1.97656 5.90156 1.97656C6.00365 1.97656 6.09115 2.01302 6.16406 2.08594C6.23698 2.15885 6.27344 2.24519 6.27344 2.34494C6.27344 2.44449 6.23698 2.53073 6.16406 2.60365L3.70677 5.05365C3.6776 5.08281 3.64601 5.10352 3.61198 5.11577C3.57795 5.12783 3.54149 5.13385 3.5026 5.13385C3.46372 5.13385 3.42726 5.12783 3.39323 5.11577C3.3592 5.10352 3.3276 5.08281 3.29844 5.05365L0.841146 2.59635C0.77309 2.5283 0.739063 2.44449 0.739063 2.34494C0.739063 2.24519 0.775521 2.15885 0.848438 2.08594Z" fill="white"/>
</svg>
