<svg width="12" height="12" viewBox="0 0 12 12" fill="none" xmlns="http://www.w3.org/2000/svg">
<path d="M3.57813 10.55C3.45313 10.425 3.39063 10.277 3.39063 10.106C3.39063 9.93533 3.45313 9.7875 3.57813 9.6625L7.24063 6L3.56562 2.325C3.44896 2.20833 3.39062 2.0625 3.39062 1.8875C3.39062 1.7125 3.45312 1.5625 3.57812 1.4375C3.70312 1.3125 3.85113 1.25 4.02213 1.25C4.19279 1.25 4.34063 1.3125 4.46563 1.4375L8.66563 5.65C8.71563 5.7 8.75113 5.75417 8.77213 5.8125C8.79279 5.87083 8.80313 5.93333 8.80313 6C8.80313 6.06667 8.79279 6.12917 8.77213 6.1875C8.75113 6.24583 8.71563 6.3 8.66563 6.35L4.45312 10.5625C4.33646 10.6792 4.19279 10.7375 4.02213 10.7375C3.85113 10.7375 3.70313 10.675 3.57813 10.55Z" fill="#AF3B2B"/>
</svg>
