<svg width="17" height="17" viewBox="0 0 17 17" fill="none" xmlns="http://www.w3.org/2000/svg">
<path d="M11.3359 4.2513V2.83464H5.66927V4.2513M4.96094 12.7513C4.18177 12.7513 3.54427 13.3888 3.54427 14.168C3.54427 14.9471 4.18177 15.5846 4.96094 15.5846C5.7401 15.5846 6.3776 14.9471 6.3776 14.168C6.3776 13.3888 5.7401 12.7513 4.96094 12.7513ZM12.0443 12.7513C11.2651 12.7513 10.6276 13.3888 10.6276 14.168C10.6276 14.9471 11.2651 15.5846 12.0443 15.5846C12.8234 15.5846 13.4609 14.9471 13.4609 14.168C13.4609 13.3888 12.8234 12.7513 12.0443 12.7513ZM5.1026 10.4846V10.4138L5.7401 9.20964H10.9818C11.4776 9.20964 11.9734 8.9263 12.1859 8.5013L14.9484 3.54297L13.7443 2.83464L10.9818 7.79297H6.02344L3.04844 1.41797H0.710938V2.83464H2.1276L4.6776 8.21797L3.68594 9.91797C3.6151 10.1305 3.54427 10.343 3.54427 10.6263C3.54427 11.4055 4.18177 12.043 4.96094 12.043H13.4609V10.6263H5.24427C5.17344 10.6263 5.1026 10.5555 5.1026 10.4846Z" fill="white"/>
</svg>
