<svg width="9" height="5" viewBox="0 0 9 5" fill="none" xmlns="http://www.w3.org/2000/svg">
<path d="M1.0875 0.68164C1.18125 0.58789 1.29225 0.541015 1.4205 0.541015C1.5485 0.541015 1.65937 0.58789 1.75312 0.68164L4.5 3.42852L7.25625 0.672266C7.34375 0.584766 7.45312 0.541016 7.58437 0.541016C7.71562 0.541016 7.82812 0.587891 7.92187 0.681641C8.01562 0.775391 8.0625 0.886391 8.0625 1.01464C8.0625 1.14264 8.01562 1.25352 7.92187 1.34727L4.7625 4.49727C4.725 4.53477 4.68437 4.56139 4.64062 4.57714C4.59687 4.59264 4.55 4.60039 4.5 4.60039C4.45 4.60039 4.40312 4.59264 4.35937 4.57714C4.31562 4.56139 4.275 4.53477 4.2375 4.49727L1.07812 1.33789C0.990625 1.25039 0.946875 1.14264 0.946875 1.01464C0.946875 0.88639 0.99375 0.77539 1.0875 0.68164Z" fill="#17232E"/>
</svg>
