<svg width="7" height="7" viewBox="0 0 7 7" fill="none" xmlns="http://www.w3.org/2000/svg">
<path d="M6.07893 1.55727L4.13643 3.49977L6.07893 5.44227C6.33268 5.69602 6.33268 6.11602 6.07893 6.36977C5.94768 6.50102 5.78143 6.56227 5.61518 6.56227C5.44893 6.56227 5.28268 6.50102 5.15143 6.36977L3.20893 4.42727L1.26643 6.36977C1.13518 6.50102 0.968926 6.56227 0.802676 6.56227C0.636426 6.56227 0.470177 6.50102 0.338927 6.36977C0.216882 6.24627 0.148438 6.07964 0.148438 5.90602C0.148438 5.73239 0.216882 5.56576 0.338927 5.44227L2.28143 3.49977L0.338927 1.55727C0.0851768 1.30352 0.0851768 0.883516 0.338927 0.629766C0.592677 0.376016 1.01268 0.376016 1.26643 0.629766L3.20893 2.57227L5.15143 0.629766C5.40518 0.376016 5.82518 0.376016 6.07893 0.629766C6.33268 0.883516 6.33268 1.30352 6.07893 1.55727Z" fill="#6C6C6C"/>
</svg>
