<svg width="21" height="21" viewBox="0 0 21 21" fill="none" xmlns="http://www.w3.org/2000/svg">
<circle cx="10.5" cy="10.5" r="10" stroke="#17232E"/>
<path d="M13.9189 8.30411L11.6527 10.5704L13.9189 12.8366C14.2149 13.1327 14.2149 13.6227 13.9189 13.9187C13.7658 14.0718 13.5718 14.1433 13.3779 14.1433C13.1839 14.1433 12.9899 14.0718 12.8368 13.9187L10.5706 11.6524L8.30432 13.9187C8.15119 14.0718 7.95724 14.1433 7.76328 14.1433C7.56932 14.1433 7.37536 14.0718 7.22224 13.9187C7.07985 13.7746 7 13.5802 7 13.3777C7 13.1751 7.07985 12.9807 7.22224 12.8366L9.48849 10.5704L7.22224 8.30411C6.9262 8.00807 6.9262 7.51807 7.22224 7.22203C7.51828 6.92599 8.00828 6.92599 8.30432 7.22203L10.5706 9.48828L12.8368 7.22203C13.1329 6.92599 13.6229 6.92599 13.9189 7.22203C14.2149 7.51807 14.2149 8.00807 13.9189 8.30411Z" fill="#17232E"/>
</svg>
