<svg width="16" height="16" viewBox="0 0 16 16" fill="none" xmlns="http://www.w3.org/2000/svg">
<path d="M15.7049 3.5808L9.99065 0.437947C9.90627 0.391528 9.81153 0.367188 9.71522 0.367188C9.61892 0.367188 9.52418 0.391528 9.4398 0.437947L3.72551 3.5808C3.63592 3.63013 3.56121 3.7026 3.50917 3.79065C3.45714 3.8787 3.42969 3.9791 3.42969 4.08138C3.42969 4.18365 3.45714 4.28405 3.50917 4.3721C3.56121 4.46015 3.63592 4.53262 3.72551 4.58195L9.1438 7.56195V13.6871L7.40894 12.7328L6.85808 13.7334L9.4398 15.1534C9.52414 15.1999 9.6189 15.2243 9.71522 15.2243C9.81155 15.2243 9.90631 15.1999 9.99065 15.1534L15.7049 12.0105C15.7946 11.9612 15.8693 11.8888 15.9214 11.8007C15.9734 11.7127 16.0009 11.6122 16.0009 11.5099V4.08138C16.0009 3.97908 15.9734 3.87867 15.9214 3.79062C15.8693 3.70257 15.7946 3.63011 15.7049 3.5808ZM9.71522 1.59109L14.2438 4.08138L9.71522 6.57166L5.18665 4.08138L9.71522 1.59109ZM14.8581 11.1722L10.2867 13.6865V7.56138L14.8581 5.04709V11.1722Z" fill="#6C6C6C"/>
<path d="M4.57143 7.7952H0V6.65234H4.57143V7.7952ZM5.71429 12.3666H1.14286V11.2238H5.71429V12.3666ZM6.85714 10.0809H2.28571V8.93806H6.85714V10.0809Z" fill="#6C6C6C"/>
</svg>
