<svg width="13" height="12" viewBox="0 0 13 12" fill="none" xmlns="http://www.w3.org/2000/svg">
<path d="M12.0232 2.46042L7.64824 0.0541751C7.58364 0.0186355 7.5111 0 7.43736 0C7.36363 0 7.29109 0.0186355 7.22649 0.0541751L2.85149 2.46042C2.78289 2.49819 2.72569 2.55368 2.68585 2.62109C2.64602 2.6885 2.625 2.76537 2.625 2.84368C2.625 2.92198 2.64602 2.99885 2.68585 3.06626C2.72569 3.13367 2.78289 3.18916 2.85149 3.22693L6.99986 5.50849V10.198L5.67161 9.46742L5.24986 10.2335L7.22649 11.3207C7.29107 11.3563 7.36361 11.375 7.43736 11.375C7.51111 11.375 7.58366 11.3563 7.64824 11.3207L12.0232 8.91442C12.0919 8.87668 12.1491 8.8212 12.1889 8.75379C12.2288 8.68637 12.2499 8.60949 12.2499 8.53117V2.84368C12.2499 2.76536 12.2288 2.68848 12.1889 2.62107C12.1491 2.55365 12.0919 2.49817 12.0232 2.46042ZM7.43736 0.93705L10.9046 2.84368L7.43736 4.7503L3.97018 2.84368L7.43736 0.93705ZM11.3749 8.27261L7.87486 10.1976V5.50805L11.3749 3.58305V8.27261Z" fill="#6C6C6C"/>
<path d="M3.5 5.6875H0V4.8125H3.5V5.6875ZM4.375 9.1875H0.875V8.3125H4.375V9.1875ZM5.25 7.4375H1.75V6.5625H5.25V7.4375Z" fill="#6C6C6C"/>
</svg>
