<svg width="10" height="10" viewBox="0 0 10 10" fill="none" xmlns="http://www.w3.org/2000/svg">
<path d="M6.0875 0.0173611C7.2125 0.267361 8.14583 0.842361 8.8875 1.74236C9.62917 2.64236 10 3.69653 10 4.90486C10 5.66319 9.84783 6.36319 9.5435 7.00486C9.2395 7.64653 8.825 8.19653 8.3 8.65486H9C9.14167 8.65486 9.26033 8.70286 9.356 8.79886C9.452 8.89453 9.5 9.0132 9.5 9.15486C9.5 9.29653 9.452 9.41519 9.356 9.51086C9.26033 9.60686 9.14167 9.65486 9 9.65486H7C6.85833 9.65486 6.73967 9.60686 6.644 9.51086C6.548 9.41519 6.5 9.29653 6.5 9.15486V7.15486C6.5 7.01319 6.548 6.89436 6.644 6.79836C6.73967 6.70269 6.85833 6.65486 7 6.65486C7.14167 6.65486 7.26033 6.70269 7.356 6.79836C7.452 6.89436 7.5 7.01319 7.5 7.15486V8.01736C7.95833 7.64236 8.323 7.18819 8.594 6.65486C8.86467 6.12153 9 5.53819 9 4.90486C9 3.94653 8.70633 3.11103 8.119 2.39836C7.53133 1.68603 6.79167 1.22569 5.9 1.01736C5.78333 0.992361 5.6875 0.934028 5.6125 0.842361C5.5375 0.750695 5.5 0.646528 5.5 0.529861C5.5 0.363194 5.55833 0.225694 5.675 0.117361C5.79167 0.00902779 5.92917 -0.0243056 6.0875 0.0173611ZM3.9125 9.79236C2.7875 9.54236 1.85417 8.96736 1.1125 8.06736C0.370833 7.16736 0 6.11319 0 4.90486C0 4.14653 0.152167 3.44653 0.4565 2.80486C0.7605 2.16319 1.175 1.61319 1.7 1.15486H1C0.858333 1.15486 0.739667 1.10686 0.644 1.01086C0.548 0.915195 0.5 0.796528 0.5 0.654861C0.5 0.513195 0.548 0.394361 0.644 0.298361C0.739667 0.202694 0.858333 0.154861 1 0.154861H3C3.14167 0.154861 3.2605 0.202694 3.3565 0.298361C3.45217 0.394361 3.5 0.513195 3.5 0.654861V2.65486C3.5 2.79653 3.45217 2.91536 3.3565 3.01136C3.2605 3.10703 3.14167 3.15486 3 3.15486C2.85833 3.15486 2.7395 3.10703 2.6435 3.01136C2.54783 2.91536 2.5 2.79653 2.5 2.65486V1.79236C2.04167 2.15903 1.677 2.61119 1.406 3.14886C1.13533 3.68619 1 4.27153 1 4.90486C1 5.86319 1.29383 6.69853 1.8815 7.41086C2.46883 8.12353 3.20833 8.58403 4.1 8.79236C4.21667 8.81736 4.3125 8.8757 4.3875 8.96736C4.4625 9.05903 4.5 9.16319 4.5 9.27986C4.5 9.44653 4.44167 9.58403 4.325 9.69236C4.20833 9.8007 4.07083 9.83403 3.9125 9.79236ZM4.2875 6.99236C4.22083 6.99236 4.15833 6.98203 4.1 6.96136C4.04167 6.94036 3.9875 6.90486 3.9375 6.85486L2.525 5.42986C2.43333 5.33819 2.3855 5.22353 2.3815 5.08586C2.37717 4.94853 2.425 4.82986 2.525 4.72986C2.61667 4.63819 2.73333 4.59236 2.875 4.59236C3.01667 4.59236 3.13333 4.63819 3.225 4.72986L4.2875 5.79236L6.775 3.30486C6.875 3.20486 6.99167 3.15686 7.125 3.16086C7.25833 3.16519 7.375 3.21736 7.475 3.31736C7.56667 3.41736 7.61467 3.53403 7.619 3.66736C7.623 3.80069 7.575 3.91736 7.475 4.01736L4.6375 6.85486C4.5875 6.90486 4.53333 6.94036 4.475 6.96136C4.41667 6.98203 4.35417 6.99236 4.2875 6.99236Z" fill="#6C6C6C"/>
</svg>
