<svg width="14" height="13" viewBox="0 0 14 13" fill="none" xmlns="http://www.w3.org/2000/svg">
<path d="M7.95102 0.206269C9.42041 0.5328 10.6395 1.28382 11.6082 2.45933C12.5769 3.63484 13.0612 5.01171 13.0612 6.58994C13.0612 7.58042 12.8625 8.49471 12.465 9.3328C12.0679 10.1709 11.5265 10.8893 10.8408 11.4879H11.7551C11.9401 11.4879 12.0951 11.5506 12.2201 11.676C12.3455 11.8009 12.4082 11.9559 12.4082 12.141C12.4082 12.326 12.3455 12.481 12.2201 12.6059C12.0951 12.7313 11.9401 12.794 11.7551 12.794H9.14286C8.95782 12.794 8.80283 12.7313 8.67788 12.6059C8.55249 12.481 8.4898 12.326 8.4898 12.141V9.52872C8.4898 9.34368 8.55249 9.18847 8.67788 9.06309C8.80283 8.93813 8.95782 8.87566 9.14286 8.87566C9.32789 8.87566 9.48289 8.93813 9.60784 9.06309C9.73322 9.18847 9.79592 9.34368 9.79592 9.52872V10.6552C10.3946 10.1655 10.8709 9.57226 11.2248 8.87566C11.5783 8.17906 11.7551 7.41715 11.7551 6.58994C11.7551 5.33824 11.3715 4.24698 10.6044 3.31615C9.83684 2.38575 8.87075 1.7845 7.70612 1.51239C7.55374 1.47974 7.42857 1.40355 7.33061 1.28382C7.23265 1.16409 7.18367 1.02804 7.18367 0.875657C7.18367 0.65797 7.25986 0.478378 7.41225 0.336882C7.56463 0.195385 7.74422 0.151848 7.95102 0.206269ZM5.1102 12.9736C3.64082 12.6471 2.42177 11.8961 1.45306 10.7206C0.484354 9.54505 0 8.16817 0 6.58994C0 5.59947 0.198748 4.68518 0.596245 3.84709C0.993306 3.00899 1.53469 2.29062 2.22041 1.69198H1.30612C1.12109 1.69198 0.966095 1.62929 0.841143 1.5039C0.715755 1.37895 0.653061 1.22396 0.653061 1.03892C0.653061 0.853889 0.715755 0.698678 0.841143 0.57329C0.966095 0.448338 1.12109 0.385861 1.30612 0.385861H3.91837C4.1034 0.385861 4.25861 0.448338 4.384 0.57329C4.50895 0.698678 4.57143 0.853889 4.57143 1.03892V3.65117C4.57143 3.8362 4.50895 3.99141 4.384 4.1168C4.25861 4.24175 4.1034 4.30423 3.91837 4.30423C3.73333 4.30423 3.57812 4.24175 3.45273 4.1168C3.32778 3.99141 3.26531 3.8362 3.26531 3.65117V2.52464C2.66667 3.00355 2.19037 3.59413 1.83641 4.29639C1.48288 4.99822 1.30612 5.76273 1.30612 6.58994C1.30612 7.84164 1.6899 8.93269 2.45747 9.86308C3.2246 10.7939 4.19048 11.3954 5.3551 11.6675C5.50748 11.7001 5.63265 11.7763 5.73061 11.8961C5.82857 12.0158 5.87755 12.1518 5.87755 12.3042C5.87755 12.5219 5.80136 12.7015 5.64898 12.843C5.4966 12.9845 5.31701 13.028 5.1102 12.9736ZM5.6 9.31647C5.51293 9.31647 5.43129 9.30298 5.3551 9.27598C5.27891 9.24856 5.20816 9.20219 5.14286 9.13688L3.29796 7.27566C3.17823 7.15593 3.11576 7.00616 3.11053 6.82635C3.10487 6.64698 3.16735 6.49198 3.29796 6.36137C3.41769 6.24164 3.57007 6.18178 3.7551 6.18178C3.94014 6.18178 4.09252 6.24164 4.21224 6.36137L5.6 7.74913L8.84898 4.50015C8.97959 4.36953 9.13197 4.30684 9.30612 4.31207C9.48027 4.31773 9.63265 4.38586 9.76327 4.51647C9.88299 4.64709 9.94569 4.79947 9.95135 4.97362C9.95657 5.14777 9.89388 5.30015 9.76327 5.43076L6.05714 9.13688C5.99184 9.20219 5.92109 9.24856 5.8449 9.27598C5.76871 9.30298 5.68708 9.31647 5.6 9.31647Z" fill="#6C6C6C"/>
</svg>
