<svg width="5" height="9" viewBox="0 0 5 9" fill="none" xmlns="http://www.w3.org/2000/svg">
<path d="M4.82679 0.177866C4.94226 0.296443 5 0.436838 5 0.599051C5 0.760949 4.94226 0.901186 4.82679 1.01976L1.44342 4.49407L4.83834 7.98024C4.94611 8.09091 5 8.22925 5 8.39526C5 8.56126 4.94226 8.70356 4.82679 8.82213C4.71132 8.94071 4.5746 9 4.41663 9C4.25897 9 4.1224 8.94071 4.00693 8.82213L0.127021 4.82609C0.0808314 4.77866 0.0480374 4.72727 0.0286377 4.67194C0.00954614 4.6166 3.42989e-07 4.55731 3.47872e-07 4.49407C3.52754e-07 4.43083 0.00954616 4.37154 0.0286378 4.31621C0.0480374 4.26087 0.0808314 4.20949 0.127021 4.16206L4.01848 0.166008C4.12625 0.0553359 4.25897 -7.33586e-08 4.41663 -5.77511e-08C4.5746 -4.2113e-08 4.71132 0.0592889 4.82679 0.177866Z" fill="#17232E"/>
</svg>
