<svg width="9" height="9" viewBox="0 0 9 9" fill="none" xmlns="http://www.w3.org/2000/svg">
<path d="M2.67969 7.9125C2.58594 7.81875 2.53906 7.70775 2.53906 7.5795C2.53906 7.4515 2.58594 7.34063 2.67969 7.24688L5.42656 4.5L2.67031 1.74375C2.58281 1.65625 2.53906 1.54688 2.53906 1.41563C2.53906 1.28438 2.58594 1.17188 2.67969 1.07812C2.77344 0.984375 2.88444 0.9375 3.01269 0.9375C3.14069 0.9375 3.25156 0.984375 3.34531 1.07812L6.49531 4.2375C6.53281 4.275 6.55944 4.31562 6.57519 4.35938C6.59069 4.40313 6.59844 4.45 6.59844 4.5C6.59844 4.55 6.59069 4.59687 6.57519 4.64062C6.55944 4.68438 6.53281 4.725 6.49531 4.7625L3.33594 7.92188C3.24844 8.00938 3.14069 8.05313 3.01269 8.05313C2.88444 8.05313 2.77344 8.00625 2.67969 7.9125Z" fill="#AF3B2B"/>
</svg>
