<svg width="16" height="16" viewBox="0 0 16 16" fill="none" xmlns="http://www.w3.org/2000/svg">
<path d="M4.79 11.3435L6.11075 10.9625L14.063 2.91497C14.1257 2.85069 14.1606 2.76432 14.1602 2.67451C14.1598 2.5847 14.1241 2.49866 14.0607 2.43497L13.5845 1.95347C13.5537 1.92185 13.517 1.89667 13.4763 1.87941C13.4357 1.86216 13.3921 1.85316 13.348 1.85295C13.3038 1.85274 13.2601 1.86132 13.2193 1.87819C13.1786 1.89507 13.1416 1.91989 13.1105 1.95122L5.17925 9.97772L4.78925 11.3427L4.79 11.3435ZM14.5272 0.999472L15.0035 1.48172C15.6605 2.14697 15.6665 3.22022 15.0155 3.87872L6.821 12.1722L3.998 12.9852C3.82565 13.0335 3.6412 13.0114 3.48512 12.9238C3.32905 12.8362 3.2141 12.6902 3.1655 12.518C3.12934 12.3941 3.12882 12.2626 3.164 12.1385L3.98525 9.25847L12.158 0.986722C12.3134 0.83024 12.4984 0.706268 12.7022 0.622036C12.9061 0.537804 13.1246 0.494998 13.3451 0.496115C13.5657 0.497232 13.7838 0.54225 13.9867 0.628542C14.1897 0.714834 14.3734 0.841424 14.5272 0.999472ZM5.888 1.86422C6.26 1.86422 6.5615 2.16947 6.5615 2.54597C6.56209 2.63497 6.54514 2.72322 6.5116 2.80566C6.47807 2.8881 6.42861 2.96313 6.36606 3.02645C6.30351 3.08976 6.22909 3.14013 6.14706 3.17467C6.06503 3.2092 5.977 3.22723 5.888 3.22772H3.194C2.45 3.22772 1.847 3.83822 1.847 4.59047V12.77C1.847 13.523 2.45 14.1335 3.194 14.1335H11.276C12.02 14.1335 12.6238 13.523 12.6238 12.77V10.0437C12.6238 9.66722 12.9253 9.36197 13.2972 9.36197C13.6692 9.36197 13.9708 9.66722 13.9708 10.0445V12.77C13.9708 14.276 12.764 15.497 11.276 15.497H3.194C1.706 15.497 0.5 14.276 0.5 12.77V4.59047C0.5 3.08522 1.706 1.86422 3.194 1.86422H5.888Z" fill="#17232E"/>
</svg>
