<svg width="16" height="16" viewBox="0 0 16 16" fill="none" xmlns="http://www.w3.org/2000/svg">
<path d="M3.1675 6.81625C4.4275 9.2925 6.4575 11.3225 8.93375 12.5825L10.8587 10.6575C11.1038 10.4125 11.445 10.3425 11.7513 10.4388C12.7312 10.7625 13.7812 10.9375 14.875 10.9375C15.1071 10.9375 15.3296 11.0297 15.4937 11.1938C15.6578 11.3579 15.75 11.5804 15.75 11.8125V14.875C15.75 15.1071 15.6578 15.3296 15.4937 15.4937C15.3296 15.6578 15.1071 15.75 14.875 15.75C10.9299 15.75 7.14639 14.1828 4.35679 11.3932C1.56718 8.60361 0 4.8201 0 0.875C0 0.642936 0.0921872 0.420376 0.256282 0.256282C0.420376 0.0921872 0.642936 0 0.875 0H3.9375C4.16956 0 4.39212 0.0921872 4.55622 0.256282C4.72031 0.420376 4.8125 0.642936 4.8125 0.875C4.8125 1.96875 4.9875 3.01875 5.31125 3.99875C5.4075 4.305 5.3375 4.64625 5.0925 4.89125L3.1675 6.81625Z" fill="#17232E"/>
</svg>
