<svg width="8" height="9" viewBox="0 0 8 9" fill="none" xmlns="http://www.w3.org/2000/svg">
<path d="M7.75126 1.461L5.21238 3.99988L7.75126 6.53877C8.08291 6.87042 8.08291 7.41937 7.75126 7.75103C7.57971 7.92257 7.36242 8.00263 7.14513 8.00263C6.92784 8.00263 6.71055 7.92257 6.539 7.75103L4.00012 5.21214L1.46123 7.75103C1.28969 7.92257 1.07239 8.00263 0.855102 8.00263C0.63781 8.00263 0.420519 7.92257 0.248973 7.75103C0.0894577 7.58962 0 7.37183 0 7.1449C0 6.91796 0.0894577 6.70018 0.248973 6.53877L2.78786 3.99988L0.248973 1.461C-0.0826829 1.12935 -0.0826829 0.580398 0.248973 0.248742C0.580629 -0.082914 1.12958 -0.082914 1.46123 0.248742L4.00012 2.78762L6.539 0.248742C6.87066 -0.082914 7.4196 -0.082914 7.75126 0.248742C8.08291 0.580398 8.08291 1.12935 7.75126 1.461Z" fill="#6C6C6C"/>
</svg>
