<svg width="17" height="17" viewBox="0 0 17 17" fill="none" xmlns="http://www.w3.org/2000/svg">
<mask id="path-1-outside-1_3182_4043" maskUnits="userSpaceOnUse" x="0" y="0" width="17" height="17" fill="black">
<rect fill="white" width="17" height="17"/>
<path fill-rule="evenodd" clip-rule="evenodd" d="M8.5 15C4.91015 15 2 12.0899 2 8.5C2 4.91015 4.91015 2 8.5 2C12.0899 2 15 4.91015 15 8.5C15 12.0899 12.0899 15 8.5 15ZM1 8.5C1 4.35786 4.35786 1 8.5 1C12.6421 1 16 4.35786 16 8.5C16 12.6421 12.6421 16 8.5 16C4.35786 16 1 12.6421 1 8.5ZM8.10783 8.90657C8.01708 9.12857 7.9717 9.4927 7.9717 9.99895H9.04983C9.04983 9.6302 9.0827 9.3692 9.14845 9.21595C9.21395 9.06295 9.39983 8.83957 9.70608 8.54582C9.99358 8.26457 10.2046 8.01307 10.3391 7.79132C10.4733 7.56932 10.5405 7.30207 10.5405 6.98957C10.5405 6.47707 10.364 6.03807 10.011 5.67257C9.6577 5.30682 9.15295 5.12395 8.4967 5.12395C7.96545 5.12395 7.52483 5.27082 7.17483 5.56457C6.82483 5.85832 6.5842 6.2052 6.45295 6.6052L7.41858 7.0177C7.48733 6.8177 7.60445 6.62082 7.76995 6.42707C7.9357 6.23332 8.17795 6.13645 8.4967 6.13645C8.80295 6.13645 9.04208 6.22082 9.21408 6.38957C9.38583 6.55832 9.4717 6.77082 9.4717 7.02707C9.4717 7.23957 9.40445 7.42857 9.26995 7.59407C9.1357 7.75982 8.94045 7.9552 8.6842 8.1802C8.39045 8.4427 8.19833 8.68482 8.10783 8.90657ZM7.9672 12.0288C8.11395 12.1756 8.29045 12.2489 8.4967 12.2489C8.70295 12.2489 8.87958 12.1756 9.02658 12.0288C9.17333 11.8818 9.2467 11.7052 9.2467 11.4989C9.2467 11.2927 9.17333 11.1161 9.02658 10.9691C8.87958 10.8223 8.70295 10.7489 8.4967 10.7489C8.29045 10.7489 8.11395 10.8223 7.9672 10.9691C7.8202 11.1161 7.7467 11.2927 7.7467 11.4989C7.7467 11.7052 7.8202 11.8818 7.9672 12.0288Z"/>
</mask>
<path fill-rule="evenodd" clip-rule="evenodd" d="M8.5 15C4.91015 15 2 12.0899 2 8.5C2 4.91015 4.91015 2 8.5 2C12.0899 2 15 4.91015 15 8.5C15 12.0899 12.0899 15 8.5 15ZM1 8.5C1 4.35786 4.35786 1 8.5 1C12.6421 1 16 4.35786 16 8.5C16 12.6421 12.6421 16 8.5 16C4.35786 16 1 12.6421 1 8.5ZM8.10783 8.90657C8.01708 9.12857 7.9717 9.4927 7.9717 9.99895H9.04983C9.04983 9.6302 9.0827 9.3692 9.14845 9.21595C9.21395 9.06295 9.39983 8.83957 9.70608 8.54582C9.99358 8.26457 10.2046 8.01307 10.3391 7.79132C10.4733 7.56932 10.5405 7.30207 10.5405 6.98957C10.5405 6.47707 10.364 6.03807 10.011 5.67257C9.6577 5.30682 9.15295 5.12395 8.4967 5.12395C7.96545 5.12395 7.52483 5.27082 7.17483 5.56457C6.82483 5.85832 6.5842 6.2052 6.45295 6.6052L7.41858 7.0177C7.48733 6.8177 7.60445 6.62082 7.76995 6.42707C7.9357 6.23332 8.17795 6.13645 8.4967 6.13645C8.80295 6.13645 9.04208 6.22082 9.21408 6.38957C9.38583 6.55832 9.4717 6.77082 9.4717 7.02707C9.4717 7.23957 9.40445 7.42857 9.26995 7.59407C9.1357 7.75982 8.94045 7.9552 8.6842 8.1802C8.39045 8.4427 8.19833 8.68482 8.10783 8.90657ZM7.9672 12.0288C8.11395 12.1756 8.29045 12.2489 8.4967 12.2489C8.70295 12.2489 8.87958 12.1756 9.02658 12.0288C9.17333 11.8818 9.2467 11.7052 9.2467 11.4989C9.2467 11.2927 9.17333 11.1161 9.02658 10.9691C8.87958 10.8223 8.70295 10.7489 8.4967 10.7489C8.29045 10.7489 8.11395 10.8223 7.9672 10.9691C7.8202 11.1161 7.7467 11.2927 7.7467 11.4989C7.7467 11.7052 7.8202 11.8818 7.9672 12.0288Z" fill="#6C6C6C"/>
<path d="M7.9717 9.99895H7.7717V10.1989H7.9717V9.99895ZM8.10783 8.90657L8.29296 8.98225L8.293 8.98214L8.10783 8.90657ZM9.04983 9.99895V10.1989H9.24983V9.99895H9.04983ZM9.14845 9.21595L9.33225 9.2948L9.33231 9.29466L9.14845 9.21595ZM9.70608 8.54582L9.84453 8.69017L9.84594 8.68879L9.70608 8.54582ZM10.3391 7.79132L10.5101 7.89504L10.5102 7.89482L10.3391 7.79132ZM10.011 5.67257L10.1548 5.53363L10.1548 5.53363L10.011 5.67257ZM7.17483 5.56457L7.3034 5.71777L7.17483 5.56457ZM6.45295 6.6052L6.26292 6.54284L6.20575 6.71708L6.37439 6.78912L6.45295 6.6052ZM7.41858 7.0177L7.34001 7.20162L7.5378 7.28611L7.60772 7.08271L7.41858 7.0177ZM7.76995 6.42707L7.61798 6.29706L7.61788 6.29717L7.76995 6.42707ZM9.21408 6.38957L9.35425 6.24691L9.35415 6.24681L9.21408 6.38957ZM9.26995 7.59407L9.11475 7.46794L9.11454 7.46819L9.26995 7.59407ZM8.6842 8.1802L8.55224 8.0299L8.55094 8.03107L8.6842 8.1802ZM7.9672 12.0288L8.10863 11.8874H8.10863L7.9672 12.0288ZM9.02658 12.0288L9.16788 12.1704L9.16812 12.1701L9.02658 12.0288ZM9.02658 10.9691L9.16812 10.8278L9.16788 10.8275L9.02658 10.9691ZM7.9672 10.9691L8.10863 11.1105H8.10863L7.9672 10.9691ZM1.8 8.5C1.8 12.2003 4.79969 15.2 8.5 15.2V14.8C5.02061 14.8 2.2 11.9794 2.2 8.5H1.8ZM8.5 1.8C4.79969 1.8 1.8 4.79969 1.8 8.5H2.2C2.2 5.02061 5.02061 2.2 8.5 2.2V1.8ZM15.2 8.5C15.2 4.79969 12.2003 1.8 8.5 1.8V2.2C11.9794 2.2 14.8 5.02061 14.8 8.5H15.2ZM8.5 15.2C12.2003 15.2 15.2 12.2003 15.2 8.5H14.8C14.8 11.9794 11.9794 14.8 8.5 14.8V15.2ZM8.5 0.8C4.24741 0.8 0.8 4.24741 0.8 8.5H1.2C1.2 4.46832 4.46832 1.2 8.5 1.2V0.8ZM16.2 8.5C16.2 4.24741 12.7526 0.8 8.5 0.8V1.2C12.5317 1.2 15.8 4.46832 15.8 8.5H16.2ZM8.5 16.2C12.7526 16.2 16.2 12.7526 16.2 8.5H15.8C15.8 12.5317 12.5317 15.8 8.5 15.8V16.2ZM0.8 8.5C0.8 12.7526 4.24741 16.2 8.5 16.2V15.8C4.46832 15.8 1.2 12.5317 1.2 8.5H0.8ZM8.1717 9.99895C8.1717 9.49623 8.21794 9.16576 8.29296 8.98225L7.9227 8.83089C7.81622 9.09138 7.7717 9.48916 7.7717 9.99895H8.1717ZM9.04983 9.79895H7.9717V10.1989H9.04983V9.79895ZM8.96466 9.13709C8.88148 9.33095 8.84983 9.62808 8.84983 9.99895H9.24983C9.24983 9.63231 9.28392 9.40745 9.33225 9.2948L8.96466 9.13709ZM9.56763 8.40149C9.26317 8.69352 9.04809 8.94221 8.96459 9.13724L9.33231 9.29466C9.37982 9.18369 9.53649 8.98562 9.84452 8.69016L9.56763 8.40149ZM10.1681 7.6876C10.0457 7.88943 9.84754 8.12766 9.56622 8.40286L9.84594 8.68879C10.1396 8.40149 10.3635 8.13671 10.5101 7.89504L10.1681 7.6876ZM10.3405 6.98957C10.3405 7.27308 10.2798 7.50289 10.1679 7.68783L10.5102 7.89482C10.6669 7.63575 10.7405 7.33106 10.7405 6.98957H10.3405ZM9.86709 5.81151C10.1837 6.13937 10.3405 6.52841 10.3405 6.98957H10.7405C10.7405 6.42573 10.5442 5.93678 10.1548 5.53363L9.86709 5.81151ZM8.4967 5.32395C9.11527 5.32395 9.56167 5.49528 9.8671 5.81151L10.1548 5.53363C9.75374 5.11837 9.19064 4.92395 8.4967 4.92395V5.32395ZM7.3034 5.71777C7.61166 5.45905 8.00442 5.32395 8.4967 5.32395V4.92395C7.92648 4.92395 7.438 5.08259 7.04625 5.41138L7.3034 5.71777ZM6.64299 6.66755C6.76163 6.30598 6.97942 5.98968 7.3034 5.71777L7.04625 5.41138C6.67024 5.72697 6.40678 6.10441 6.26292 6.54284L6.64299 6.66755ZM7.49715 6.83378L6.53152 6.42128L6.37439 6.78912L7.34001 7.20162L7.49715 6.83378ZM7.61788 6.29717C7.43932 6.50621 7.30785 6.72459 7.22944 6.95268L7.60772 7.08271C7.66681 6.9108 7.76959 6.73543 7.92203 6.55697L7.61788 6.29717ZM8.4967 5.93645C8.13534 5.93645 7.83094 6.04812 7.61798 6.29706L7.92193 6.55709C8.04047 6.41852 8.22056 6.33645 8.4967 6.33645V5.93645ZM9.35415 6.24681C9.13534 6.03213 8.84047 5.93645 8.4967 5.93645V6.33645C8.76544 6.33645 8.94882 6.40951 9.07401 6.53234L9.35415 6.24681ZM9.6717 7.02707C9.6717 6.721 9.56692 6.45587 9.35425 6.24691L9.07391 6.53223C9.20474 6.66078 9.2717 6.82064 9.2717 7.02707H9.6717ZM9.42516 7.72021C9.58852 7.5192 9.6717 7.28569 9.6717 7.02707H9.2717C9.2717 7.19345 9.22038 7.33795 9.11475 7.46794L9.42516 7.72021ZM8.81616 8.33048C9.07652 8.10188 9.28109 7.89809 9.42537 7.71995L9.11454 7.46819C8.99032 7.62156 8.80439 7.80851 8.55224 8.02991L8.81616 8.33048ZM8.293 8.98214C8.36691 8.80105 8.53351 8.58308 8.81747 8.32933L8.55094 8.03107C8.24739 8.30232 8.02975 8.56859 7.92266 8.831L8.293 8.98214ZM8.4967 12.0489C8.34387 12.0489 8.21813 11.9969 8.10863 11.8874L7.82578 12.1702C8.00978 12.3542 8.23704 12.4489 8.4967 12.4489V12.0489ZM8.88528 11.8873C8.77548 11.9969 8.64955 12.0489 8.4967 12.0489V12.4489C8.75636 12.4489 8.98368 12.3542 9.16788 12.1704L8.88528 11.8873ZM9.0467 11.4989C9.0467 11.6518 8.99465 11.7777 8.88504 11.8875L9.16812 12.1701C9.35201 11.9859 9.4467 11.7586 9.4467 11.4989H9.0467ZM8.88504 11.1104C8.99465 11.2202 9.0467 11.3461 9.0467 11.4989H9.4467C9.4467 11.2393 9.35201 11.012 9.16812 10.8278L8.88504 11.1104ZM8.4967 10.9489C8.64955 10.9489 8.77548 11.001 8.88528 11.1106L9.16788 10.8275C8.98368 10.6436 8.75636 10.5489 8.4967 10.5489V10.9489ZM8.10863 11.1105C8.21813 11.001 8.34387 10.9489 8.4967 10.9489V10.5489C8.23704 10.5489 8.00978 10.6437 7.82578 10.8277L8.10863 11.1105ZM7.9467 11.4989C7.9467 11.3462 7.9988 11.2203 8.10863 11.1105L7.82578 10.8277C7.64161 11.0118 7.5467 11.2392 7.5467 11.4989H7.9467ZM8.10863 11.8874C7.9988 11.7776 7.9467 11.6517 7.9467 11.4989H7.5467C7.5467 11.7587 7.64161 11.9861 7.82578 12.1702L8.10863 11.8874Z" fill="#6C6C6C" mask="url(#path-1-outside-1_3182_4043)"/>
</svg>
