<svg width="10" height="10" viewBox="0 0 10 10" fill="none" xmlns="http://www.w3.org/2000/svg">
<path fill-rule="evenodd" clip-rule="evenodd" d="M5 9C2.79086 9 1 7.20914 1 5C1 2.79086 2.79086 1 5 1C7.20914 1 9 2.79086 9 5C9 7.20914 7.20914 9 5 9ZM0 5C0 2.23858 2.23858 0 5 0C7.76142 0 10 2.23858 10 5C10 7.76142 7.76142 10 5 10C2.23858 10 0 7.76142 0 5ZM4.74075 5.27175C4.68025 5.41975 4.65 5.6625 4.65 6H5.36875C5.36875 5.75417 5.39067 5.58017 5.4345 5.478C5.47817 5.376 5.60208 5.22708 5.80625 5.03125C5.99792 4.84375 6.13858 4.67608 6.22825 4.52825C6.31775 4.38025 6.3625 4.20208 6.3625 3.99375C6.3625 3.65208 6.24483 3.35942 6.0095 3.11575C5.774 2.87192 5.4375 2.75 5 2.75C4.64583 2.75 4.35208 2.84792 4.11875 3.04375C3.88542 3.23958 3.725 3.47083 3.6375 3.7375L4.28125 4.0125C4.32708 3.87917 4.40517 3.74792 4.5155 3.61875C4.626 3.48958 4.7875 3.425 5 3.425C5.20417 3.425 5.36358 3.48125 5.47825 3.59375C5.59275 3.70625 5.65 3.84792 5.65 4.01875C5.65 4.16042 5.60517 4.28642 5.5155 4.39675C5.426 4.50725 5.29583 4.6375 5.125 4.7875C4.92917 4.9625 4.80108 5.12392 4.74075 5.27175ZM4.647 7.35325C4.74483 7.45108 4.8625 7.5 5 7.5C5.1375 7.5 5.25525 7.45108 5.35325 7.35325C5.45108 7.25525 5.5 7.1375 5.5 7C5.5 6.8625 5.45108 6.74475 5.35325 6.64675C5.25525 6.54892 5.1375 6.5 5 6.5C4.8625 6.5 4.74483 6.54892 4.647 6.64675C4.549 6.74475 4.5 6.8625 4.5 7C4.5 7.1375 4.549 7.25525 4.647 7.35325Z" fill="#6C6C6C"/>
</svg>
