<svg width="17" height="17" viewBox="0 0 17 17" fill="none" xmlns="http://www.w3.org/2000/svg">
<path d="M6.72917 2.125C7.95027 2.125 9.12136 2.61008 9.9848 3.47353C10.8483 4.33698 11.3333 5.50807 11.3333 6.72917C11.3333 7.86958 10.9154 8.91792 10.2283 9.72542L10.4196 9.91667H10.9792L14.5208 13.4583L13.4583 14.5208L9.91667 10.9792V10.4196L9.72542 10.2283C8.88997 10.9415 7.82759 11.3333 6.72917 11.3333C5.50807 11.3333 4.33698 10.8483 3.47353 9.9848C2.61008 9.12136 2.125 7.95027 2.125 6.72917C2.125 5.50807 2.61008 4.33698 3.47353 3.47353C4.33698 2.61008 5.50807 2.125 6.72917 2.125ZM6.72917 3.54167C4.95833 3.54167 3.54167 4.95833 3.54167 6.72917C3.54167 8.5 4.95833 9.91667 6.72917 9.91667C8.5 9.91667 9.91667 8.5 9.91667 6.72917C9.91667 4.95833 8.5 3.54167 6.72917 3.54167Z" fill="#17232E"/>
</svg>
