<svg width="20" height="20" viewBox="0 0 20 20" fill="none" xmlns="http://www.w3.org/2000/svg">
<path d="M17.2598 11.3008C17.3399 10.8613 17.3828 10.4121 17.3828 9.96289C17.3828 8.9668 17.1875 8 16.8027 7.0918C16.4317 6.21289 15.8985 5.42383 15.2207 4.74609C14.5486 4.07231 13.752 3.53566 12.875 3.16602C11.9649 2.78125 11 2.58594 10.0039 2.58594C9.53517 2.58594 9.06447 2.63086 8.60744 2.71875C7.97504 2.38364 7.2704 2.20798 6.5547 2.20703C5.38868 2.20703 4.29103 2.66211 3.46681 3.48633C3.0601 3.89095 2.73762 4.37219 2.51804 4.90221C2.29846 5.43223 2.18612 6.00052 2.18751 6.57422C2.18751 7.31641 2.37892 8.04688 2.73634 8.69141C2.66408 9.10938 2.62501 9.53711 2.62501 9.96289C2.62501 10.959 2.82033 11.9258 3.20509 12.834C3.57618 13.7129 4.10743 14.502 4.78517 15.1797C5.4629 15.8574 6.25197 16.3887 7.13087 16.7598C8.04103 17.1445 9.00587 17.3398 10.002 17.3398C10.4356 17.3398 10.8692 17.3008 11.2949 17.2246C11.9492 17.5938 12.6875 17.791 13.4434 17.791C14.6094 17.791 15.707 17.3379 16.5313 16.5117C17.3574 15.6875 17.8106 14.5898 17.8106 13.4238C17.8125 12.6816 17.6211 11.9492 17.2598 11.3008ZM15.5391 15.5195C14.9785 16.082 14.2383 16.3867 13.4453 16.3867C12.9356 16.3867 12.4336 16.2539 11.9883 16.002L11.5488 15.7539L11.0508 15.8418C10.7031 15.9043 10.3516 15.9355 10.0039 15.9355C9.19533 15.9355 8.41603 15.7773 7.67775 15.4648C6.96876 15.166 6.33009 14.7363 5.77931 14.1855C5.23409 13.6422 4.79961 12.9981 4.50001 12.2891C4.18751 11.5527 4.03126 10.7734 4.03126 9.96484C4.03126 9.625 4.06251 9.27734 4.12111 8.93359L4.20704 8.44336L3.96486 8.00781C3.72058 7.56946 3.59219 7.07604 3.59181 6.57422C3.59181 5.78125 3.89845 5.04102 4.459 4.48047C5.0215 3.91992 5.76173 3.61328 6.5547 3.61328C7.04107 3.6146 7.51977 3.7346 7.94923 3.96289L8.38673 4.19336L8.87111 4.09961C9.24025 4.0293 9.62111 3.99219 10.0039 3.99219C10.8125 3.99219 11.5918 4.15039 12.3281 4.46094C13.041 4.76172 13.6777 5.19141 14.2266 5.74023C14.7774 6.28906 15.207 6.92773 15.5078 7.63867C15.8203 8.375 15.9766 9.1543 15.9766 9.96289C15.9766 10.3223 15.9434 10.6855 15.877 11.0469L15.7852 11.5449L16.0313 11.9863C16.2774 12.4258 16.4063 12.9238 16.4063 13.4258C16.4063 14.2207 16.0996 14.959 15.5391 15.5195ZM11.3945 9.10547L9.66798 8.72266C9.01173 8.57227 8.25587 8.375 8.25587 7.75586C8.25587 7.13672 8.78517 6.70313 9.7422 6.70313C11.6699 6.70313 11.4942 8.02734 12.4512 8.02734C12.9551 8.02734 13.3965 7.73047 13.3965 7.22266C13.3965 6.03516 11.4942 5.14258 9.88087 5.14258C8.12892 5.14258 6.26369 5.88672 6.26369 7.86719C6.26369 8.82031 6.60353 9.83594 8.48244 10.3066L10.8145 10.8887C11.5195 11.0625 11.6973 11.459 11.6973 11.8184C11.6973 12.4141 11.1055 12.9961 10.0332 12.9961C7.93947 12.9961 8.23048 11.3848 7.10939 11.3848C6.60548 11.3848 6.24025 11.7324 6.24025 12.2266C6.24025 13.1914 7.41212 14.4805 10.0332 14.4805C12.5274 14.4805 13.7637 13.2793 13.7637 11.668C13.7637 10.6309 13.2852 9.52734 11.3945 9.10547Z" fill="#F25733"/>
</svg>
