<svg width="18" height="18" viewBox="0 0 18 18" fill="none" xmlns="http://www.w3.org/2000/svg">
<path d="M12.6406 2.175C12.8281 2.3625 12.9219 2.5845 12.9219 2.841C12.9219 3.097 12.8281 3.31875 12.6406 3.50625L7.14688 9L12.6594 14.5125C12.8344 14.6875 12.9219 14.9062 12.9219 15.1687C12.9219 15.4312 12.8281 15.6562 12.6406 15.8437C12.4531 16.0312 12.2311 16.125 11.9746 16.125C11.7186 16.125 11.4969 16.0312 11.3094 15.8437L5.00937 9.525C4.93437 9.45 4.88113 9.36875 4.84963 9.28125C4.81863 9.19375 4.80313 9.1 4.80313 9C4.80313 8.9 4.81863 8.80625 4.84963 8.71875C4.88113 8.63125 4.93437 8.55 5.00937 8.475L11.3281 2.15625C11.5031 1.98125 11.7186 1.89375 11.9746 1.89375C12.2311 1.89375 12.4531 1.9875 12.6406 2.175Z" fill="#17232E"/>
</svg>
