<svg width="10" height="9" viewBox="0 0 10 9" fill="none" xmlns="http://www.w3.org/2000/svg">
<path d="M4.42937 0.756231C4.60898 0.203445 5.39102 0.203444 5.57063 0.75623L6.21238 2.73131C6.2927 2.97852 6.52307 3.1459 6.78301 3.1459H8.85973C9.44096 3.1459 9.68263 3.88967 9.2124 4.23131L7.5323 5.45197C7.32201 5.60476 7.23401 5.87558 7.31434 6.12279L7.95608 8.09787C8.13569 8.65066 7.503 9.11033 7.03277 8.76869L5.35267 7.54803C5.14238 7.39524 4.85762 7.39524 4.64733 7.54803L2.96723 8.76869C2.497 9.11033 1.86431 8.65066 2.04392 8.09787L2.68566 6.12279C2.76599 5.87558 2.67799 5.60476 2.4677 5.45197L0.7876 4.23131C0.317372 3.88967 0.559037 3.1459 1.14027 3.1459H3.21699C3.47693 3.1459 3.7073 2.97852 3.78762 2.73131L4.42937 0.756231Z" fill="#0B4899"/>
</svg>
