<svg width="13" height="12" viewBox="0 0 13 12" fill="none" xmlns="http://www.w3.org/2000/svg">
<path d="M6.40489 0.91074C6.41539 0.878422 6.42943 0.865519 6.4398 0.85845C6.45336 0.849212 6.47426 0.841641 6.5 0.841641C6.52574 0.841641 6.54664 0.849212 6.5602 0.85845C6.57057 0.865519 6.5846 0.878421 6.59511 0.910739L7.57362 3.92229C7.72088 4.37552 8.14323 4.68237 8.61978 4.68237H11.7863C11.8203 4.68237 11.8369 4.69173 11.8468 4.69941C11.8598 4.70945 11.8735 4.72699 11.8814 4.75147C11.8894 4.77595 11.8886 4.79817 11.884 4.81392C11.8805 4.82596 11.8726 4.8433 11.8451 4.86327L9.28331 6.72452C8.89778 7.00462 8.73645 7.50113 8.88371 7.95435L9.86223 10.9659C9.87273 10.9982 9.86896 11.0169 9.86472 11.0287C9.85919 11.0442 9.84672 11.0626 9.8259 11.0777C9.80508 11.0928 9.78372 11.099 9.76732 11.0995C9.75478 11.0999 9.73584 11.0977 9.70834 11.0777L7.14656 9.21647C6.76103 8.93636 6.23897 8.93636 5.85344 9.21647L3.29166 11.0777C3.26417 11.0977 3.24523 11.0999 3.23268 11.0995C3.21628 11.099 3.19492 11.0928 3.1741 11.0777C3.15328 11.0626 3.14081 11.0442 3.13528 11.0287C3.13104 11.0169 3.12727 10.9982 3.13777 10.9659L4.11629 7.95435C4.26355 7.50113 4.10222 7.00462 3.71669 6.72452L1.15491 4.86327C1.12742 4.8433 1.11948 4.82596 1.11597 4.81392C1.11137 4.79817 1.11063 4.77595 1.11858 4.75147C1.12653 4.72699 1.14019 4.70945 1.15317 4.69941C1.1631 4.69173 1.1797 4.68237 1.21369 4.68237H4.38022C4.85677 4.68237 5.27912 4.37552 5.42638 3.92229L6.40489 0.91074Z" stroke="#CDCDCD"/>
</svg>
