<svg width="10" height="9" viewBox="0 0 10 9" fill="none" xmlns="http://www.w3.org/2000/svg">
<path d="M4.90489 0.91074C4.91539 0.878422 4.92943 0.865519 4.9398 0.85845C4.95336 0.849212 4.97426 0.841641 5 0.841641C5.02574 0.841641 5.04664 0.849212 5.0602 0.858449C5.07057 0.865519 5.0846 0.878421 5.09511 0.910739L5.73685 2.88582C5.88411 3.33904 6.30646 3.6459 6.78301 3.6459H8.85973C8.89371 3.6459 8.91032 3.65526 8.92025 3.66294C8.93322 3.67298 8.94688 3.69052 8.95483 3.715C8.96279 3.73948 8.96205 3.7617 8.95745 3.77744C8.95393 3.78949 8.946 3.80683 8.91851 3.8268L7.23841 5.04746C6.85287 5.32757 6.69155 5.82408 6.83881 6.2773L7.31434 6.12279L6.83881 6.2773L7.48055 8.25238C7.49105 8.2847 7.48728 8.30338 7.48304 8.3152C7.47751 8.33064 7.46504 8.34905 7.44422 8.36418C7.4234 8.37931 7.40204 8.38547 7.38564 8.38597C7.37309 8.38634 7.35416 8.38416 7.32666 8.36418L5.64656 7.14352C5.26103 6.86341 4.73897 6.86341 4.35344 7.14352L2.67334 8.36418C2.64584 8.38416 2.62691 8.38634 2.61436 8.38597C2.59796 8.38547 2.5766 8.37931 2.55578 8.36418C2.53495 8.34905 2.52249 8.33064 2.51696 8.3152C2.51272 8.30339 2.50895 8.2847 2.51945 8.25238L3.16119 6.2773C3.30845 5.82408 3.14713 5.32757 2.76159 5.04746L2.4677 5.45197L2.76159 5.04746L1.08149 3.8268C1.054 3.80683 1.04607 3.78949 1.04255 3.77744C1.03795 3.7617 1.03721 3.73948 1.04517 3.715C1.05312 3.69052 1.06678 3.67298 1.07975 3.66294C1.08968 3.65526 1.10629 3.6459 1.14027 3.6459H3.21699C3.69354 3.6459 4.11589 3.33904 4.26315 2.88582L4.90489 0.91074Z" stroke="#6C6C6C"/>
</svg>
