<svg width="13" height="12" viewBox="0 0 13 12" fill="none" xmlns="http://www.w3.org/2000/svg">
<path d="M5.92937 0.756231C6.10898 0.203445 6.89102 0.203444 7.07063 0.75623L8.04915 3.76778C8.12947 4.015 8.35985 4.18237 8.61978 4.18237H11.7863C12.3675 4.18237 12.6092 4.92614 12.139 5.26778L9.57721 7.12902C9.36691 7.28181 9.27892 7.55263 9.35924 7.79984L10.3378 10.8114C10.5174 11.3642 9.88468 11.8239 9.41445 11.4822L6.85267 9.62098C6.64238 9.46819 6.35762 9.46819 6.14733 9.62098L3.58555 11.4822C3.11532 11.8239 2.48263 11.3642 2.66224 10.8114L3.64076 7.79984C3.72108 7.55263 3.63309 7.28181 3.42279 7.12902L0.861016 5.26778C0.390787 4.92614 0.632452 4.18237 1.21369 4.18237H4.38022C4.64015 4.18237 4.87053 4.015 4.95085 3.76778L5.92937 0.756231Z" fill="#AF3B2B"/>
</svg>
