<svg width="6" height="13" viewBox="0 0 6 13" fill="none" xmlns="http://www.w3.org/2000/svg">
<path d="M0.153125 9.65C0.253125 9.55 0.373959 9.502 0.515626 9.506C0.657292 9.51033 0.778125 9.5625 0.878125 9.6625L2.29062 11.075L2.29062 0.5C2.29062 0.358333 2.33862 0.2395 2.43462 0.1435C2.53029 0.0478335 2.64896 -1.28038e-07 2.79062 -1.21846e-07C2.93229 -1.15653e-07 3.05113 0.0478335 3.14712 0.1435C3.24279 0.2395 3.29062 0.358333 3.29062 0.5L3.29062 11.075L4.71562 9.65C4.81562 9.55 4.93446 9.5 5.07212 9.5C5.20946 9.5 5.32812 9.55 5.42812 9.65C5.52812 9.75 5.57812 9.86883 5.57812 10.0065C5.57812 10.1438 5.52812 10.2625 5.42812 10.3625L3.14062 12.65C3.09062 12.7 3.03646 12.7355 2.97812 12.7565C2.91979 12.7772 2.85729 12.7875 2.79062 12.7875C2.72396 12.7875 2.66146 12.7772 2.60312 12.7565C2.54479 12.7355 2.49062 12.7 2.44062 12.65L0.140626 10.35C0.0489588 10.2583 0.00312475 10.1438 0.00312475 10.0065C0.00312476 9.86883 0.0531254 9.75 0.153125 9.65Z" fill="white"/>
</svg>
