<svg width="17" height="17" viewBox="0 0 17 17" fill="none" xmlns="http://www.w3.org/2000/svg">
<path d="M2.125 8.5H8.5V9.5625H2.125V8.5ZM1.0625 5.84375H6.375V6.90625H1.0625V5.84375Z" fill="#6C6C6C"/>
<path d="M15.8946 8.82194L14.3009 5.10319C14.26 5.0076 14.1919 4.92614 14.1051 4.86891C14.0183 4.81167 13.9166 4.78119 13.8126 4.78125H12.2189V3.71875C12.2189 3.57785 12.1629 3.44273 12.0633 3.3431C11.9637 3.24347 11.8285 3.1875 11.6876 3.1875H3.18765V4.25H11.1564V10.9204C10.9143 11.0609 10.7025 11.248 10.5331 11.4709C10.3636 11.6937 10.24 11.9479 10.1693 12.2188H6.83096C6.70166 11.718 6.39415 11.2815 5.96608 10.9912C5.53801 10.701 5.01877 10.5768 4.50568 10.6419C3.99259 10.7071 3.52088 10.9572 3.17898 11.3453C2.83707 11.7333 2.64844 12.2328 2.64844 12.75C2.64844 13.2672 2.83707 13.7667 3.17898 14.1547C3.52088 14.5428 3.99259 14.7929 4.50568 14.8581C5.01877 14.9232 5.53801 14.799 5.96608 14.5088C6.39415 14.2185 6.70166 13.782 6.83096 13.2812H10.1693C10.2849 13.7372 10.5492 14.1416 10.9204 14.4304C11.2916 14.7193 11.7485 14.8761 12.2189 14.8761C12.6893 14.8761 13.1462 14.7193 13.5174 14.4304C13.8886 14.1416 14.1529 13.7372 14.2685 13.2812H15.4064C15.5473 13.2812 15.6824 13.2253 15.782 13.1257C15.8817 13.026 15.9376 12.8909 15.9376 12.75V9.03125C15.9377 8.95928 15.923 8.88806 15.8946 8.82194ZM4.7814 13.8125C4.57125 13.8125 4.36583 13.7502 4.1911 13.6334C4.01638 13.5167 3.88019 13.3507 3.79978 13.1566C3.71936 12.9625 3.69832 12.7488 3.73931 12.5427C3.78031 12.3366 3.8815 12.1473 4.0301 11.9987C4.17869 11.8501 4.36801 11.7489 4.57411 11.7079C4.78022 11.6669 4.99385 11.688 5.188 11.7684C5.38214 11.8488 5.54808 11.985 5.66483 12.1597C5.78158 12.3344 5.8439 12.5399 5.8439 12.75C5.84362 13.0317 5.73158 13.3018 5.53239 13.501C5.33319 13.7002 5.0631 13.8122 4.7814 13.8125ZM12.2189 5.84375H13.462L14.601 8.5H12.2189V5.84375ZM12.2189 13.8125C12.0088 13.8125 11.8033 13.7502 11.6286 13.6334C11.4539 13.5167 11.3177 13.3507 11.2373 13.1566C11.1569 12.9625 11.1358 12.7488 11.1768 12.5427C11.2178 12.3366 11.319 12.1473 11.4676 11.9987C11.6162 11.8501 11.8055 11.7489 12.0116 11.7079C12.2177 11.6669 12.4314 11.688 12.6255 11.7684C12.8196 11.8488 12.9856 11.985 13.1023 12.1597C13.2191 12.3344 13.2814 12.5399 13.2814 12.75C13.2811 13.0317 13.1691 13.3018 12.9699 13.501C12.7707 13.7002 12.5006 13.8122 12.2189 13.8125ZM14.8751 12.2188H14.2685C14.1514 11.7637 13.8867 11.3603 13.5158 11.0719C13.1449 10.7835 12.6888 10.6263 12.2189 10.625V9.5625H14.8751V12.2188Z" fill="#6C6C6C"/>
</svg>
