<svg width="20" height="20" viewBox="0 0 20 20" fill="none" xmlns="http://www.w3.org/2000/svg">
<path d="M9.57889 1.00247C8.22604 1.01894 5.3175 1.24316 3.6907 2.74838C2.48061 3.95765 2.0581 5.74553 2.00858 7.95633C1.96749 10.1592 1.91797 14.296 5.87171 15.4224V17.138C5.87171 17.138 5.84695 17.8245 6.29684 17.9653C6.85105 18.1422 7.16661 17.6141 7.69343 17.0466L8.67593 15.9261C11.3811 16.1529 13.4531 15.6301 13.6917 15.5525C14.2407 15.3756 17.3325 14.9771 17.8377 10.8398C18.3561 6.56694 17.5854 3.87477 16.1941 2.65699H16.1857C15.7658 2.267 14.0784 1.02691 10.3085 1.0131C10.3085 1.0131 10.0288 0.993973 9.57889 1.00194V1.00247ZM9.62525 2.20378C10.0093 2.20112 10.2427 2.21759 10.2427 2.21759C13.4336 2.22609 14.9566 3.19468 15.3159 3.52091C16.4875 4.5336 17.0913 6.96065 16.6493 10.5279C16.2294 13.9868 13.7218 14.2057 13.2576 14.355C13.0601 14.4187 11.2352 14.8725 8.93618 14.7232C8.93618 14.7232 7.22404 16.807 6.68879 17.3436C6.60398 17.4377 6.50494 17.4653 6.44172 17.4515C6.35111 17.4292 6.32371 17.316 6.32898 17.1608L6.34531 14.3135C2.99214 13.3784 3.1897 9.84994 3.22552 8.00681C3.26661 6.16367 3.60957 4.6558 4.63053 3.63461C6.00499 2.38124 8.47469 2.21228 9.6242 2.20378H9.62525ZM9.87812 4.04638C9.85053 4.0461 9.82315 4.05133 9.79756 4.06177C9.77198 4.07221 9.7487 4.08766 9.72906 4.10722C9.70942 4.12678 9.69382 4.15006 9.68314 4.17573C9.67247 4.2014 9.66694 4.22895 9.66687 4.25678C9.66687 4.3758 9.76275 4.46984 9.87812 4.46984C10.4005 4.45982 10.9196 4.55419 11.4056 4.74752C11.8916 4.94084 12.3348 5.22929 12.7097 5.59623C13.4752 6.34591 13.8482 7.35329 13.8624 8.67042C13.8624 8.78678 13.9557 8.88348 14.0737 8.88348V8.87498C14.1293 8.87512 14.1827 8.85308 14.2223 8.81367C14.2618 8.77426 14.2844 8.72066 14.2849 8.66458C14.3105 8.04461 14.2108 7.42587 13.9919 6.84597C13.773 6.26607 13.4395 5.73711 13.0116 5.29125C12.1777 4.46931 11.1209 4.04585 9.87812 4.04585V4.04638ZM7.10129 4.5336C6.95217 4.51162 6.80009 4.54181 6.67036 4.61914H6.65929C6.35809 4.7972 6.08676 5.02226 5.85537 5.28594C5.66309 5.51016 5.55878 5.73703 5.53138 5.9554C5.51505 6.08557 5.52612 6.21574 5.56457 6.34007L5.57827 6.34857C5.79479 6.9904 6.07769 7.60779 6.42328 8.18905C6.86845 9.00566 7.4163 9.76088 8.05324 10.436L8.07221 10.4636L8.10223 10.4859L8.1212 10.5082L8.14333 10.5274C8.81514 11.1716 9.56577 11.7267 10.377 12.1792C11.3042 12.6882 11.8668 12.9289 12.2045 13.0288V13.0341C12.3036 13.0644 12.3937 13.0782 12.4843 13.0782C12.7721 13.0569 13.0445 12.9391 13.2582 12.7435C13.5184 12.5101 13.7391 12.2353 13.9114 11.93V11.9247C14.0731 11.6176 14.0183 11.327 13.785 11.1304C13.3176 10.7184 12.8122 10.3524 12.2757 10.0375C11.9164 9.84091 11.5513 9.95992 11.4032 10.1592L11.0877 10.5603C10.926 10.7596 10.632 10.7319 10.632 10.7319L10.6236 10.7372C8.43149 10.1724 7.84673 7.93402 7.84673 7.93402C7.84673 7.93402 7.81934 7.62957 8.02216 7.47443L8.41727 7.15351C8.6064 6.99837 8.7381 6.6307 8.53528 6.26781C8.22519 5.72595 7.86312 5.2161 7.45425 4.74559C7.36487 4.63467 7.23947 4.5592 7.10024 4.53253L7.10129 4.5336ZM10.2427 5.1648C9.96294 5.1648 9.96294 5.59091 10.2453 5.59091C10.5932 5.59661 10.9365 5.67137 11.2557 5.81095C11.5748 5.95053 11.8636 6.15217 12.1055 6.40436C12.3261 6.64983 12.4957 6.93747 12.6041 7.25024C12.7125 7.563 12.7576 7.89453 12.7366 8.22518C12.7376 8.28113 12.7602 8.33449 12.7997 8.37381C12.8392 8.41314 12.8924 8.43531 12.9479 8.43558L12.9563 8.44674C13.0122 8.44632 13.0657 8.42374 13.1052 8.38387C13.1447 8.34401 13.1671 8.29006 13.1675 8.23368C13.1865 7.38942 12.9263 6.68117 12.4158 6.11373C11.9027 5.54628 11.1867 5.22803 10.2727 5.1648H10.2427ZM10.5888 6.31032C10.3006 6.30182 10.2896 6.73643 10.5751 6.74493C11.2694 6.78106 11.6066 7.13492 11.6509 7.86282C11.6518 7.91807 11.6742 7.97075 11.7132 8.00958C11.7522 8.0484 11.8047 8.07029 11.8595 8.07056H11.8679C11.8961 8.06935 11.9237 8.06248 11.9492 8.05037C11.9747 8.03826 11.9976 8.02114 12.0165 8.00002C12.0354 7.9789 12.0499 7.9542 12.0592 7.92736C12.0685 7.90052 12.0724 7.87208 12.0707 7.84369C12.0212 6.89476 11.5081 6.36026 10.5972 6.31085H10.5888V6.31032Z" fill="#F25733"/>
</svg>
