<svg width="20" height="20" viewBox="0 0 20 20" fill="none" xmlns="http://www.w3.org/2000/svg">
<path d="M15.6625 3.2643C14.9256 2.52063 14.0482 1.93104 13.0812 1.5299C12.1142 1.12875 11.077 0.924074 10.0301 0.927784C5.64339 0.927784 2.06831 4.50187 2.06429 8.88961C2.06429 10.2949 2.43194 11.6621 3.12607 12.8725L2 17.0001L6.223 15.8931C7.39126 16.5289 8.70008 16.8621 10.0301 16.8625H10.0342C14.4219 16.8625 17.996 13.2884 18 8.89664C18.001 7.84998 17.7949 6.81345 17.3935 5.8468C16.9922 4.88014 16.4035 4.00245 15.6615 3.2643H15.6625ZM10.0301 15.5144C8.84379 15.5148 7.67926 15.1956 6.65896 14.5903L6.41788 14.4456L3.91261 15.1026L4.58162 12.6586L4.42491 12.4064C3.76173 11.352 3.411 10.1312 3.41336 8.88559C3.41336 5.2432 6.38373 2.27183 10.0342 2.27183C10.9038 2.27027 11.7652 2.44087 12.5686 2.77378C13.372 3.1067 14.1016 3.59535 14.7152 4.21156C15.331 4.82537 15.8192 5.55503 16.1516 6.35845C16.484 7.16187 16.6541 8.02316 16.6519 8.89262C16.6479 12.5481 13.6775 15.5144 10.0301 15.5144ZM13.6615 10.5581C13.4636 10.4587 12.4862 9.97751 12.3024 9.9092C12.1195 9.8439 11.9859 9.80975 11.8553 10.0086C11.7217 10.2065 11.34 10.6576 11.2255 10.7871C11.111 10.9207 10.9925 10.9358 10.7936 10.8374C10.5957 10.7369 9.95379 10.528 9.19437 9.84792C8.60171 9.32055 8.20492 8.66761 8.08639 8.46972C7.97187 8.27083 8.07534 8.16435 8.17478 8.0649C8.26218 7.9765 8.37267 7.83185 8.47212 7.71733C8.57257 7.60282 8.60572 7.51844 8.67102 7.38584C8.73631 7.25124 8.70517 7.13672 8.65595 7.03727C8.60572 6.93783 8.20894 5.95641 8.04118 5.56063C7.88046 5.16987 7.71672 5.22412 7.59417 5.21909C7.47966 5.21206 7.34606 5.21206 7.21245 5.21206C7.11156 5.21457 7.01228 5.2379 6.92084 5.2806C6.82939 5.3233 6.74776 5.38444 6.68106 5.46018C6.49824 5.65907 5.98694 6.14024 5.98694 7.12165C5.98694 8.10307 6.70015 9.04632 6.8006 9.17992C6.89904 9.31352 8.2009 11.3216 10.1989 12.1854C10.671 12.3914 11.0427 12.5129 11.333 12.6053C11.8101 12.758 12.2411 12.7349 12.5846 12.6857C12.9663 12.6274 13.7609 12.2035 13.9287 11.7384C14.0934 11.2723 14.0934 10.8745 14.0432 10.7912C13.994 10.7068 13.8604 10.6576 13.6615 10.5581Z" fill="#F25733"/>
</svg>
