<svg width="46" height="46" viewBox="0 0 46 46" fill="none" xmlns="http://www.w3.org/2000/svg">
<path d="M46 44.0718L35.8566 33.9283C39.0118 30.3257 40.9401 25.6242 40.9401 20.47C40.9401 9.18325 31.7568 0 20.47 0C9.18326 0 0 9.18325 0 20.47C0 31.7568 9.18326 40.9401 20.47 40.9401C25.6242 40.9401 30.3257 39.0118 33.9283 35.8566L44.0718 46L46 44.0718ZM20.47 38.2139C10.6876 38.2139 2.72881 30.255 2.72881 20.4726C2.72881 10.6903 10.6876 2.73143 20.47 2.73143C30.2524 2.73143 38.2112 10.6903 38.2112 20.4726C38.2112 30.255 30.2524 38.2139 20.47 38.2139Z" fill="white"/>
<rect x="19" y="12" width="3" height="17" fill="white"/>
<rect x="29" y="19" width="3" height="17" transform="rotate(90 29 19)" fill="white"/>
</svg>
